<?xml version="1.0" encoding="UTF-8" standalone="no"?>
<svg
   xmlns:dc="http://purl.org/dc/elements/1.1/"
   xmlns:cc="http://creativecommons.org/ns#"
   xmlns:rdf="http://www.w3.org/1999/02/22-rdf-syntax-ns#"
   xmlns:svg="http://www.w3.org/2000/svg"
   xmlns="http://www.w3.org/2000/svg"
   xmlns:xlink="http://www.w3.org/1999/xlink"
   xmlns:sodipodi="http://sodipodi.sourceforge.net/DTD/sodipodi-0.dtd"
   xmlns:inkscape="http://www.inkscape.org/namespaces/inkscape"
   width="100%"
   height="100%"
   viewBox="-345 -345 690 690"
   id="svg2"
   version="1.1"
   inkscape:version="0.91pre2 r13516"
   sodipodi:docname="tlo.svg">
  <metadata
     id="metadata881">
    <rdf:RDF>
      <cc:Work
         rdf:about="">
        <dc:format>image/svg+xml</dc:format>
        <dc:type
           rdf:resource="http://purl.org/dc/dcmitype/StillImage" />
        <dc:title></dc:title>
      </cc:Work>
    </rdf:RDF>
  </metadata>
  <sodipodi:namedview
     pagecolor="#ffffff"
     bordercolor="#666666"
     borderopacity="1"
     objecttolerance="10"
     gridtolerance="10"
     guidetolerance="10"
     inkscape:pageopacity="0"
     inkscape:pageshadow="2"
     inkscape:window-width="1600"
     inkscape:window-height="837"
     id="namedview879"
     showgrid="false"
     inkscape:zoom="0.78239463"
     inkscape:cx="498.64583"
     inkscape:cy="345"
     inkscape:window-x="-8"
     inkscape:window-y="-8"
     inkscape:window-maximized="1"
     inkscape:current-layer="svg2" />
  <defs
     id="defs4">
    <path
       id="Aries"
       d="M 0,229.1 Q 0,126.2 67.11,60.36 130.6,0 215.7,0 q 109,0 188.7,85.73 74.9,82.97 92.3,207.87 h 12 Q 528.5,167.4 605.8,85.73 687.8,0 803.5,0 882,0 941.3,66.19 1000,132.4 1000,229.1 q 0,95.3 -35.9,163.6 -36.6,68.2 -97.1,90.2 L 801.1,380.7 q 65.3,-9.6 115.6,-54.2 49.7,-44.6 49.7,-97.4 0,-70 -49.7,-115.9 Q 867,67.22 802.3,67.22 q -97.1,0 -166,105.58 -63.5,95.4 -63.5,210.6 V 1000 H 435.6 V 383.4 q 0,-118 -61.7,-213.3 Q 308.6,67.22 215.7,67.22 142,67.22 91.67,106.3 34.15,151.6 34.15,229.1 q 0,57.6 50.33,103.9 50.32,46.3 111.42,55.9 l -50.3,94 Q 83.28,467.1 41.64,396.4 0,325.8 0,229.1 z" />
    <path
       id="Taurus"
       d="M 0,641.3 Q 0,524.1 114.5,424.3 218.2,334.3 359.1,302.9 54.79,230.3 16.63,0 96.87,129.8 263.2,194 387.5,244.2 521.5,244.2 827.8,244.2 956,18.14 921.7,124.2 827.8,204.5 728,288.9 609.6,298.7 760.3,318.9 873.8,410.3 1000,511.5 1000,644.1 1000,791.3 854.7,896 709.4,1000 501,1000 298.4,1000 152.6,898.8 0,794.1 0,641.3 z m 148.7,-79.5 q 0,150 141.4,275.6 141.4,125.6 303.8,125.6 94,0 172.2,-64.2 78.3,-64.2 78.3,-155.6 0,-162.6 -137.5,-286.5 -137.4,-123.8 -309.6,-123.8 -99.8,0 -174.2,67.3 -74.4,67.4 -74.4,161.6 z" />
    <path
       id="Gemini"
       d="m 0,0 v 6.935 q 43.62,0 76.54,22.885 32.96,22.88 32.96,61.03 V 894.6 q 0,43.7 -30.9,71.4 Q 47.74,993.1 0,993.1 v 6.9 h 1000 v -5.5 q -43.6,0 -73.3,-29.2 -29.6,-29.1 -29.6,-70.7 V 90.85 q 0,-36.76 29.6,-60.34 Q 956.4,6.935 1000,6.935 V 0 H 0 z m 303.7,90.85 q 0,-74.9 82.3,-74.9 h 1.7 219.7 q 42,0 68.7,20.46 26.8,20.46 26.8,54.44 V 894.6 q 0,79.7 -95.5,79.7 H 387.7 q -84,0 -84,-79.7 V 90.85 z" />
    <path
       id="Cancer"
       d="m 0,356 q 0,96.4 81.79,158.3 74.61,55.9 171.31,56.5 99.1,0 156.5,-50 50.1,-44 50.1,-107.7 0,-67.2 -35.5,-115.1 -35.5,-48 -91.7,-58.7 74.7,44.1 74.7,126.8 0,72 -43.6,110.1 -43.6,38.1 -110.5,38.1 -14.9,0 -31,-2.4 -43,-4.8 -78.2,-42.6 -35.2,-37.8 -35.2,-86.5 0,-215.4 354.6,-215.4 122.4,0 244.2,31.5 142.1,37.4 232.8,108.2 Q 881.8,195.3 734.9,126.9 601.8,65 463.3,65 0,65 0,356 z M 60.9,693.4 Q 119.4,805.3 265.1,873.1 395.8,935 534.3,935 1000,935 1000,645.2 1000,545.3 918.2,484 844.8,429.1 748.1,429.1 q -99.1,0 -156.5,50.1 -51.3,44 -51.3,107 0,67.3 35.5,115 35.5,47.5 90.5,58.3 Q 594,716.6 594,635.1 q 0,-72 45.4,-111.9 40.6,-36.4 107.5,-36.9 14.9,0 30.4,2.3 43,6 78.8,42.9 35.2,36.9 35.2,85.1 0,110.7 -101.4,167.3 -90.8,49.9 -252,49.9 -122.4,0 -244.8,-31.5 Q 151,764.8 60.9,693.4 z" />
    <path
       id="Leo"
       d="M 0,522.5 Q 0,440 85.71,410.6 44.6,440 43.9,515.7 q 0,46.4 33.8,76.7 33.8,30.3 88.9,30.3 134.4,0 134.4,-202.5 0,-34.8 -34.1,-205.3 -4.2,-19.8 -4.2,-37.5 0,-85.32 80.9,-134.43 Q 416,0 524.7,0 q 379.8,0 379.8,247 0,83.9 -65.5,201.1 -59.9,97.6 -121.2,194.4 -65.5,109.2 -65.5,169.3 0,60 49.4,100.9 48.8,40.2 115.7,40.2 64.1,0 107.3,-46.4 32.8,-36.1 32.8,-66.8 0,-32 -32.8,-47.7 -27.1,37.5 -64.1,37.5 -23,0 -44.6,-19.1 -22.3,-19.8 -22.3,-50.5 0,-26.6 20.2,-45 19.5,-19.1 49.5,-19.1 57.2,0 96.9,36.8 39.7,36.2 39.7,79.2 0,93.3 -71.1,142.5 -63.4,45.7 -167.2,45.7 h -2.8 q -102.5,0 -173.9,-51.9 -71.4,-52.4 -71.4,-136.3 0,-75.8 66.9,-182.9 61.3,-94.8 124.7,-190.3 66.9,-117.3 66.9,-216.2 0,-193.07 -205.5,-193.07 -73.9,0 -119.9,44.68 -46,44.69 -46,110.19 0,19.8 4.2,38.2 28.5,134.4 28.5,181.4 0,51.9 -18.1,97.6 -65.5,165 -248.7,165 -89.94,0 -132.45,-49 Q 0,578.4 0,522.5 z" />
    <path
       id="Virgo"
       d="M 0,87.9 Q 24.2,25 129.5,25 q 56.2,0 81.7,17.36 25.6,17.36 44.5,65.84 Q 298.9,25 421.8,25 542.2,25 571.6,108.2 598.4,59.72 634.4,42.69 666.4,25 726,25 790.1,25 835.8,54.48 889.5,89.2 889.5,155.4 V 217 q 53.6,1.3 82.4,57.7 26.8,51.1 26.8,125.7 0,116.6 -54.9,230 -17.7,33.4 -94.9,151.4 Q 928.7,898.4 1000,975 H 957.5 Q 888.2,910.8 830,809.9 760.6,923.9 703.1,975 h -72.6 q 85.7,-85.9 158.3,-218.8 -123,-190.7 -123.7,-355.8 0,-74 26.9,-124.8 26.8,-50.8 76.5,-57.3 v -62.9 q 0,-36.1 -30.8,-58.3 -30.7,-22.28 -72.6,-22.28 -39.9,0 -69.9,21.28 -30.1,21.3 -30.1,59.3 V 756.2 H 436.2 V 155.4 q 0,-47.2 -18.6,-63.9 -18.6,-16.68 -69.7,-16.68 -94.8,0 -94.8,80.58 V 756.2 H 124.3 V 155.4 Q 124.3,68.24 50.36,68.24 19.62,68.24 0,87.9 z m 699.1,312.5 q 0,135.6 112.5,322.4 55,-107.5 69.4,-159.9 21.6,-67.4 21.6,-162.5 0,-65.5 -24.2,-105.5 -28.2,-44.5 -77.9,-44.5 -48.4,0 -75.8,49.8 -25.6,43.2 -25.6,100.2 z" />
    <path
       id="Libra"
       d="M 0,1000 V 900 h 1000 v 100 H 0 z M 0,793.8 V 692.4 H 170.6 Q 0,597.2 0,387.6 0,210.4 140.5,103.5 277.6,0 495,0 q 215.7,0 357.8,103.5 147.2,108.9 147.2,282 0,200.7 -189,306.9 h 189 V 793.8 H 611.2 Q 715.7,742.7 775.1,622.7 830.3,513.8 830.3,385.5 830.3,258.7 740.8,152.4 641.3,35.22 495,35.22 q -140.5,0 -238.3,117.18 -87,107.6 -87.8,233.1 0,138.7 56.9,244.2 60.2,113 169.7,164.1 H 0 z" />
    <path
       id="Scorpio"
       d="M 0,128.8 C 17.19,76.3 50.53,50 100,50 c 59.7,0 93.2,34.1 100.5,102.4 l 10.6,0 C 222.6,84.1 263.6,50 334.1,50 406,50 445.5,84.1 452.6,152.4 l 11,0 C 473.7,84.1 513.9,50 584.1,50 c 84.2,0 126.3,55.6 126.3,166.8 l 0,424.3 c 0,77.9 11.9,141 35.8,189.2 23.5,47.8 53.2,71.5 88.9,71.5 76.1,0 114.2,-37.2 114.2,-111.6 0,-21 -4.2,-43.5 -12.7,-67.5 l -47.9,34.3 0,-243.9 111.3,162.6 -45.5,32.9 c 7.8,36.6 11.7,63.7 11.7,81.6 0,43.9 -9.1,80 -27.4,108.4 -24.9,34.3 -62.6,51.4 -113.1,51.4 l -2.2,0 C 677.6,950 604.6,847 604.6,641.1 l 0,-424.3 c 0,-71.4 -25.6,-107.2 -76.8,-107.2 -50.1,0 -75.2,35.8 -75.2,107.2 l 1,733.1 -104.8,0 0,-733.1 c 0,-71.4 -24.7,-107.2 -74.2,-107.2 -49.4,0 -74.1,35.8 -74.1,107.2 l 0,733.1 -104.72,0 0,-731.7 c 0,-72.4 -19.65,-108.6 -58.94,-108.6 -14.39,0 -26.67,6.5 -36.84,19.2 z" />
    <path
       id="Sagittarius"
       d="M 0,902.2 300.1,624.8 q -52.9,-52.7 -130,-80.4 l 26.4,-55.5 q 78.6,27 146.7,90.9 L 861.7,108.2 H 740 L 1000,0 892.7,247.6 v -111 L 422.5,646.3 q 69.6,85.3 86.2,146.4 L 452,817 Q 433.1,755.9 374.1,697.6 L 95.99,1000 z" />
    <path
       id="Capricorn"
       d="M 0,203.1 Q 138.2,158.3 205.7,0 349.3,127.7 504.4,127.7 598.1,127.7 755.9,84.92 889.4,47.56 1000,0 587.3,265.7 420.1,471.5 q 84.3,-32 158.5,-32 135.5,0 222.5,75.4 89.7,79.5 89.7,210 0,122.3 -104.6,200.3 -98.4,74.8 -239.3,74.8 h -2.7 q -352,0 -353.4,-302.9 0,-51.7 14.9,-95.9 Q 154.4,630.5 106.5,680 47.2,742.5 27.65,807.1 34.39,716.7 99.8,631.8 156.4,559.7 225.2,527.2 256.9,445 375.6,345.1 473.4,262.9 598.1,194.9 542.8,218.7 483.5,218.7 321.6,218.7 219.8,118.2 156.4,203.1 0,203.1 z m 334.5,494 q 0,99.8 48.5,173.8 58,90.4 161.2,90.4 93.7,0 154.4,-63.2 60,-63.2 60,-177.3 0,-87.6 -58.7,-156.6 -58.6,-68.9 -142.9,-68.9 -55.3,0 -175.3,38.6 -47.2,102 -47.2,163.2 z" />
    <path
       id="Aquarius"
       d="m 0,660.8 q 9.84,-81.6 39.36,-134.4 29.52,-52.8 70.14,-52.8 54.1,0 104.5,108.1 67.1,143 114.4,227.7 24,44.2 36.3,44.2 14.1,0 33.2,-44.2 40.6,-90.2 119.3,-271.4 30.2,-70.5 87.4,-70.5 62.7,0 100.8,70.8 37.5,71 155.6,272.3 24,40.6 45.5,40.6 31.4,-0.6 72,-138.8 Q 969.9,950 873.9,950 816.1,950 773.1,875.1 714,774.4 619.3,608 599,569.4 573.8,569.4 q -24,0 -41.2,38.6 Q 488.3,708.7 409,887.4 380.1,950 329.6,950 280.4,950 252.8,896 250.3,891.1 110.7,608 92.87,571.9 71.34,571.9 39.98,571.9 0,660.8 z M 24.6,250.1 q 8.61,-82.8 38.44,-137.8 29.83,-54.9 70.46,-54.9 54.1,0 102,105.6 64,139.4 114.4,229 25.3,44.1 36.3,44.1 12.3,0 31.4,-44.1 41.8,-90.2 121.1,-271.4 30.2,-70.6 89.2,-70.6 59.1,0 98.4,70.6 60.3,109.3 156.2,272.6 21.6,36.2 43.1,36.8 38.1,0 74.4,-119.7 Q 985.9,530 891.8,530 833.9,530 793.4,457.7 734.3,357 640.8,189.4 q -20.3,-37.5 -44.2,-37.5 -25.3,0 -41.2,37.5 L 429.3,471.2 q -27.7,60.1 -78.1,60.1 -49.2,0 -77.5,-54.7 Q 245.4,422 133.5,189.4 116.9,155.6 95.33,155.6 q -30.14,0 -70.73,94.5 z" />
    <path
       id="Pisces"
       d="m 100,1000 q 94.6,-83.7 132.2,-206.8 26.7,-93.3 28.8,-260.7 -53.3,8.3 -140.1,38.7 1.5,-8.3 10.2,-59.4 Q 209.7,476.5 261,470.3 252.3,164.6 100,0 q 131.5,38.08 220.2,167 88.8,129 99.6,288.1 50.7,-5.6 76.6,-6.2 47.7,0 84.5,6.2 Q 591,295.3 678.4,168.8 767.2,37.39 900,0 747.7,164.6 740.4,470.3 q 56.3,6.9 128.6,35.3 10,40.7 15.1,72.6 -67.8,-34 -143.7,-45.7 1.4,159.8 26.8,252.4 Q 802.6,914.9 900,1000 768.5,960.6 679.1,825.1 589.5,688.8 580.9,518.7 q -32.5,-4.2 -84.5,-4.2 -28.1,0 -76.6,4.2 -7.2,168.8 -97.4,305.7 Q 232.2,960.6 100,1000 z" />
    <path
       id="Sun"
       d="M 0,500.3 Q 0,293.6 146.1,146.8 292.3,0 500.3,0 707.1,0 853.9,146.8 1000,293.6 1000,500.3 1000,707.1 853.9,853.9 707.1,1000 500.3,1000 292.3,1000 146.1,853.9 0,707.1 0,500.3 z m 172.4,-171 q 0,191.9 134.7,391.9 139.4,205.4 280.1,205.4 95,0 167,-66 Q 833,787.2 833,674.1 833,492.3 694.9,284.2 553.5,71.38 408.8,71.38 h -7.5 q -89.5,2.69 -158.9,76.12 -70,77.4 -70,181.8 z M 412.1,503 q 0,-34.3 24.9,-58.6 25,-24.2 60.6,-24.2 34.4,0 58.6,24.9 24.3,24.9 24.3,60.6 0,34.4 -24.9,58.6 -25,24.3 -59.3,24.3 -35.7,0 -59.9,-25.6 -24.3,-25.6 -24.3,-60 z" />
    <path
       id="Moon"
       d="M 0,287.8 Q 52.74,164 178.2,84.06 309.3,0 469.7,0 690,0 845.3,148 1000,295.9 1000,499.7 1000,707.5 842.5,854 684.2,1000 469.7,1000 373.5,1000 305.1,975.1 407,928 463.3,840 519.6,751.9 519.6,637.5 519.6,482.2 402,371.9 284.4,261.6 119.7,261.6 67,261.6 0,287.8 z m 47.75,-39 q 81.95,-41 184.65,-41 172.4,0 293.3,114.3 120.8,114.3 120.8,277.1 0,119.7 -75.9,221.2 Q 494.7,921.3 376.3,965 h 13.6 Q 579.5,965 715.6,836.6 851,707.5 851,527.2 851,348.3 716.3,220.9 580.9,93.47 389.9,93.47 186.7,93.47 47.75,248.8 z" />
    <path
       id="Mercury"
       d="m 250,0 q 72.5,182.1 281.8,183.4 81.4,0 144.4,-56.5 62.9,-56.56 69.7,-126.9 0,64.83 -38.9,129.7 -43.2,71.7 -113.6,99.3 64.3,25.5 109.5,86.2 47.1,64.8 47.1,142.7 0,84.9 -51.6,151.8 -51.7,66.9 -133.1,86.9 V 839.3 H 683 v 36.6 H 565.3 V 1000 H 451.7 V 875.9 H 336.9 V 839.3 H 451.7 V 696.6 Q 375.9,685.5 320.1,615.5 264.4,545.5 264.4,459.3 264.4,304.1 412.8,231.7 276.7,196.6 250,0 z m 105.3,392.4 q 0,97.3 65,181.4 65,84.1 139.6,84.1 103.3,0 103.3,-146.9 0,-100 -64.4,-180.3 -64.2,-80.4 -141.5,-80.4 -45.2,0 -73.6,39.4 -28.4,39.3 -28.4,102.7 z" />
    <path
       id="Venus"
       d="M 180,317 Q 180,189.9 272.3,94.96 364.6,0 493.4,0 629.8,0 724.9,91.51 820,183 820,314.2 q 0,116 -75.9,205.8 -75.9,89.8 -189.2,109.1 v 164.4 h 144.8 v 38 H 554.9 V 1000 H 424.8 V 831.5 h -142 v -38 h 142 V 623.6 Q 319.9,600.8 250,513.5 180,426.1 180,317 z m 121.7,-78 q 0,124.3 74.2,229.2 79,111.9 185.3,111.9 65.8,0 103.5,-54.5 37.8,-54.6 37.8,-146.5 0,-121.5 -86.1,-223.7 -83.1,-96.01 -172.7,-96.01 -60.1,0 -101,52.51 -41,52.5 -41,127.1 z" />
    <path
       id="Mars"
       d="M 0,636.9 Q 0,487 102.2,380.9 204.5,274.6 348.5,274.6 q 147.9,0 253.1,113.8 l 213,-221.3 h -190 L 1000,0 846.8,404.1 V 204.8 L 632.5,428.1 q 63.1,92.5 63.1,208.8 Q 695.6,787 594,893.8 492.4,1000 348.5,1000 204.5,1000 102.2,893.8 0,787 0,636.9 z M 134.1,530.2 q 0,151.3 87.8,281.4 87.8,129.5 189.7,129.5 68.3,0 115.7,-43.2 53.9,-52 53.9,-144.5 0,-139.1 -90.1,-275.3 Q 397.8,337 288,337 h -1.3 q -63.2,0 -107.9,55.8 -44.7,55.8 -44.7,137.4 z" />
    <path
       id="Jupiter"
       d="M 150,793.8 Q 279.1,651 407.4,508.3 561,330.3 561,233.1 561,172.4 514.4,131.4 467.7,90.34 413,90.34 255.2,90.34 183,229 197,118.6 278.3,56.55 351.3,0 456.5,0 555.4,0 622.7,53.1 690,106.2 690,197.9 690,289.7 621.3,388.3 569.4,461.4 455.1,566.2 353.4,657.9 252.4,750.3 H 568 V 624.1 L 676,497.2 v 253.1 h 174 v 43.5 H 676 V 1000 H 568 V 793.8 H 150 z" />
    <path
       id="Saturn"
       d="M 150,163.5 V 125 H 347.8 V 0 H 484.4 V 125 H 795 v 38.5 H 484.4 v 307.7 q 15.6,-63.2 71,-111 55.4,-47.7 113.8,-47.7 180.8,0 180.8,216.3 0,118.2 -108.1,233.6 -94.5,103 -239.8,171.7 -139.3,65.9 -244.7,65.9 h -8.1 Q 442.9,939.6 585.6,800.8 734.5,657.3 734.5,519.2 q 0,-80.3 -18,-114.7 -18,-34.3 -60.8,-34.3 -127.8,0 -171.3,201.2 H 347.8 V 163.5 H 150 z" />
    <path
       id="Uranus"
       d="m 190,410.5 q 54.2,-101.3 54.2,-199.1 0,-97.1 -54.2,-201.07 h 75.7 Q 317,99.17 326.8,193.5 H 449 V 0 h 105.5 v 193.5 h 115.3 q 9.6,-88.8 68,-183.17 H 810 q -57,103.27 -57,199.77 0,97.1 57,200.4 h -72.2 q -54.1,-90.3 -68,-181.8 H 554.5 v 234.1 q 93.7,20 155.5,96.1 61.8,76.1 61.8,173.2 0,111.6 -81.9,190.1 Q 608,1000 497.6,1000 383.7,1000 303.2,920.1 224,841.6 224,732.8 v -3.5 q 1.4,-104.6 57,-174.9 61,-77.8 168,-91.6 V 228.7 H 326.8 q -8.4,86 -61.1,181.8 H 190 z m 140.9,252.7 q 0,104.7 64,190.1 68,91.6 158.2,91.6 107.6,0 107.6,-156.3 0,-104.7 -67.3,-189.1 Q 526,515.2 442,515.2 q -50,0 -80.5,41.6 -30.6,41.7 -30.6,106.4 z" />
    <path
       id="Neptune"
       d="M 90,152.4 210.7,2.759 330.7,153.8 261.4,135.9 v 273.8 q 0,100 76.2,100 h 111 V 135.9 L 383.5,153.8 498.6,0 622.1,153.8 550.7,135.9 v 373.8 h 109.8 q 77.4,0 76.7,-100 V 135.9 L 668.7,153.8 786.6,0 910,152.4 838.7,135.9 v 273.8 q 0,153.7 -142,153.7 h -146 V 780 h 151.6 v 46.2 H 550.7 V 1000 H 448.6 V 826.2 H 297.8 V 780 H 448.6 V 563.4 H 300.5 q -141.9,0 -141.2,-153.7 V 135.9 z" />
    <path
       id="Pluto"
       d="m 170,312.4 45.5,-29.6 q 8.3,97.2 92.4,174.8 84.2,77.6 188.3,77.6 107.6,0 193.8,-76.2 86.2,-76.2 89,-168 l 51,21.4 q -5.5,100 -99.3,189 -87.6,84.8 -172.4,93.1 v 233.1 h 135.8 v 37.9 H 555.5 V 1000 H 447.2 V 865.5 H 310 V 827.6 H 447.2 V 594.5 Q 351.4,580.7 269.3,504.1 177.6,420.7 170,312.4 z m 93.1,-77.9 q 0,-94.5 70,-164.5 70,-70 164.5,-70 97.2,0 167.2,70 70,70 70,164.5 0,97.2 -69.6,167.9 -69.7,70.7 -167.6,70.7 -95.9,0 -165.2,-70.7 -69.3,-70.7 -69.3,-167.9 z m 90.3,-49.7 q 0,89 63.2,166.9 63.1,78 127.9,78 45.5,0 71.4,-39 25.8,-39 25.8,-101 0,-89 -64.8,-165.6 -63.5,-71.69 -125.5,-71.69 -43.5,0 -70.7,37.93 -27.3,37.96 -27.3,94.46 z" />
    <path
       id="Chiron"
       d="m 205,804.4 q 0,-75.1 70.3,-127.4 65.4,-51 170.4,-63.4 V 0 H 551.5 V 169.4 L 709.4,11.71 H 754 L 587,176.3 770.7,358.1 h -75.2 l -144,-143.2 v 398.7 q 108.5,12.4 176,65.1 67.5,52.7 67.5,125.7 0,84.7 -85.6,140.5 -85.5,55.1 -210.8,55.1 -121,0 -207.3,-55.8 Q 205,888.4 205,804.4 z m 102.9,-42.7 q 0,76.5 75.6,138.4 75.5,62 173.6,62 55.6,0 94.9,-32.3 39.3,-32.4 39.3,-82 0,-73 -78.6,-134.3 -78.6,-62 -171.1,-62 -57.1,0 -95.4,32 -38.3,32.1 -38.3,78.2 z" />
    <path
       id="North Node"
       d="M 0,778.7 Q 0,703.9 45.38,644.4 90.76,585 161.7,564.7 116.3,484.9 116.3,380 116.3,227 219.5,117.2 329.2,0.8185 498.3,0 664.2,0 777.2,117.2 885.3,228.6 885.3,380 q 0,95.2 -47.8,184.7 70.9,20.3 117.1,79.7 45.4,59.5 45.4,134.3 0,91.9 -66,157 -66,64.3 -158.4,64.3 -93.3,0 -159.3,-65.1 -66,-65.1 -66,-156.2 0,-79.8 51.6,-141.6 51.6,-61.8 129.1,-77.3 57.8,-83 57.8,-178.2 0,-114.7 -83.8,-199.7 -83.7,-85.07 -206.7,-85.07 -116.3,0 -200.9,85.87 -84.5,85.9 -84.5,198.9 0,103.3 58.6,178.2 75.9,14.7 126.6,76.5 50.7,61.8 50.7,142.4 0,93.6 -64.7,157.8 Q 319.3,1000 224.4,1000 131.2,1000 65.59,934.9 0,869.8 0,778.7 z m 92.41,0 q 0,53.7 38.79,91.9 38.8,37.5 93.2,37.5 54.5,0 93.3,-37.5 38.7,-38.2 38.7,-91.9 0,-53.7 -39.2,-92 -39.1,-38.2 -92.8,-38.2 -54.4,0 -93.2,38.2 -38.79,38.3 -38.79,92 z m 551.19,0 q 0,53.7 38.7,91.9 38.8,37.5 93.3,37.5 54.4,0 93.2,-37.5 38,-38.2 38,-91.9 0,-53.7 -38.8,-92 -38.8,-38.2 -92.4,-38.2 -54.5,0 -93.3,38.2 -38.7,38.3 -38.7,92 z" />
    <path
       id="South Node"
       d="M 0,222.1 Q 0,130.2 65.59,65.09 131.2,0 224.4,0 q 94.9,0 159.7,64.28 64.7,64.32 64.7,157.82 0,79.8 -50.7,141.2 -50.7,61.4 -126.6,76.9 -59.5,74.9 -58.6,178.2 0,113.1 84.1,199.3 84.2,85.5 201.3,85.5 123.8,0 207.1,-84.6 83.4,-85.5 83.4,-200.2 0,-95.2 -57.8,-178.2 -77.5,-14.7 -129.1,-76.5 -51.6,-61.8 -51.6,-141.6 0,-93.5 66,-157.82 Q 682.3,0 775.6,0 q 93.2,0 159.2,65.09 65.2,65.11 65.2,157.01 0,74.9 -45.4,133.9 -46.2,59 -117.1,79.3 47,90.3 47.8,184.7 0,151.4 -108.1,263.6 Q 664.2,1000 498.3,1000 329.2,1000 219.5,883.6 116.3,773.8 116.3,620 116.3,515.1 161.7,435.3 90.76,415 45.38,356 0,297 0,222.1 z m 92.41,0 q 0,53.7 38.79,91.6 38.8,37.8 93.2,37.8 54.5,0 93.3,-37.8 38.7,-37.9 38.7,-91.6 0,-53.7 -39.2,-91.9 -39.1,-38.26 -92.8,-38.26 -54.4,0 -93.2,38.26 -38.79,38.2 -38.79,91.9 z m 551.19,0 q 0,53.7 38.7,91.6 38.8,37.8 93.3,37.8 54.4,0 93.2,-37.8 38,-37.9 38,-91.6 0,-53.7 -38.8,-91.9 -38.8,-38.26 -92.4,-38.26 -54.5,0 -93.3,38.26 -38.7,38.2 -38.7,91.9 z" />
    <path
       id="Pars Fortuna"
       d="M 0,498.3 Q 0,705.4 147.2,852.7 294.4,1000 499.6,1000 706.5,1000 853.7,852.7 1000,705.4 1000,498.3 1000,292.9 852.8,146.5 705.6,0 499.6,0 294.4,0 147.2,146.5 0,292.9 0,498.3 z m 90.83,-4.2 q 0,-144.8 96.77,-263.5 l 259.8,261.8 -264.9,266 Q 90.83,643.1 90.83,494.1 z M 232.1,809.8 499.6,542.9 764.5,809.8 Q 645.9,908.2 502.9,908.2 360,908.2 232.1,809.8 z M 238.9,181 Q 344,91.75 499.6,90.91 644.2,91.75 757.8,181 L 499.6,439.4 z m 312,311.4 259.9,-261.8 q 98.4,123.8 98.4,263.5 0,149.8 -93.4,264.3 z" />
    <path
       id="Asc"
       d="M 0,936.9 150.6,60 H 229 L 380.4,936.9 H 276.1 L 240.8,714.5 H 76.86 L 40,936.9 H 0 z M 84.71,658.7 H 229 L 153.7,219.5 z m 314.49,107.7 33.7,-11 q 0,155.5 91,155.5 h 0.8 q 65.9,0 65.9,-106 0,-67.6 -44.7,-118.7 -41.6,-41.6 -85.5,-84.1 -44.7,-58.1 -44.7,-144.5 0,-81.7 31.4,-129.7 31.3,-47.9 80.7,-47.9 53.4,0 84.7,48.3 31.4,48.3 31.4,123 l -32.1,23.6 q 0,-61.3 -19.6,-104.5 -22.8,-52.7 -62.8,-52.7 h -1.6 q -64.3,0 -64.3,106.1 0,69.1 50.2,115.5 44.7,38.5 91.8,78.6 49.4,55 49.4,148.5 0,78.5 -43.1,128.8 -36.9,44.8 -84,44.8 -128.6,0 -128.6,-173.6 z m 295.7,-132 q 0,-146.2 42.4,-242.8 47.8,-109.2 136.4,-110 53.4,0 84.3,48.3 31,48.3 31,123 l -32.1,23.5 q 0,-61.3 -18.9,-104.5 -22.7,-51 -62.7,-51 h -1.6 q -94.9,0 -94.9,313.5 0,268.7 93.4,268.7 94.9,0 94.1,-147.7 l 33.7,11 q 0,75.4 -35.3,122.5 Q 928.6,940 863.5,940 H 862 Q 694.9,940 694.9,634.4 z" />
    <path
       id="MC"
       d="M 0,960 V 38.5 H 119.7 L 241.4,715.2 361.8,38.5 H 475.9 V 960 H 361.8 V 240.1 L 241.4,960 H 173.1 L 48.51,249 V 960 H 0 z M 552.3,527 q 0,-207.5 64.8,-341.4 Q 686.6,35 814.8,35 892.4,35 943.3,99.9 995,166 995,267.8 l -43.5,28.4 Q 951.5,90.9 815.7,90.9 h -0.9 q -89.6,0 -121.1,158.1 -16.8,89.4 -17.5,270.9 0,389.1 128.8,389.1 152,0 152,-244 l 43,22.6 q 0,131.4 -54.9,197.4 -54.4,80 -152.4,80 -120.8,0 -184.4,-127 -56,-115.6 -56,-311 z" />
    <g
       id="CentralCircle"
       style="font-family: Arial; font-size: 11pt;"
       text-anchor="middle"
       transform="">
      <circle
         cx="0"
         cy="0"
         r="45.0"
         style="fill:none;"
         stroke-width="90"
         id="circle35"
         d="M 45,0 A 45,45 0 0 1 0,45 45,45 0 0 1 -45,0 45,45 0 0 1 0,-45 45,45 0 0 1 45,0 Z" />
      <text
         x="0"
         y="-35"
         style="font-weight: bold;"
         transform=""
         id="text37" />
      <text
         x="0"
         y="-5"
         style="font-size: 9pt;"
         transform=""
         id="text39">1974/11/03 01:25 UTC+01</text>
      <text
         x="0"
         y="15"
         style="font-size: 9pt;"
         transform=""
         id="text41">53N31:50 15E48:35</text>
      <text
         x="0"
         y="45"
         style="font-style: italic;"
         transform=""
         id="text43">Placidus</text>
      <text
         x="0"
         y="70"
         style="font-size: 9pt; fill:lightgray;"
         transform=""
         id="text45">© Flatangle</text>
    </g>
    <!-- House Circle -->
    <line
       id="HouseSeparator"
       x1="-90"
       y1="0"
       x2="-221"
       y2="0"
       style="fill:none; stroke:black; stroke-width:1;" />
    <g
       id="HouseCircle"
       transform="rotate(162.13423281954127,0,0)">
      <circle
         cx="0"
         cy="0"
         r="155.5"
         style="fill:none; stroke: none;"
         stroke-width="131"
         id="circle49"
         d="M 155.5,0 A 155.5,155.5 0 0 1 0,155.5 155.5,155.5 0 0 1 -155.5,0 155.5,155.5 0 0 1 0,-155.5 155.5,155.5 0 0 1 155.5,0 Z" />
      <circle
         cx="0"
         cy="0"
         r="90"
         style="fill:none; stroke:black; stroke-width:2;"
         id="circle51"
         d="M 90,0 A 90,90 0 0 1 0,90 90,90 0 0 1 -90,0 90,90 0 0 1 0,-90 90,90 0 0 1 90,0 Z" />
      <use
         xlink:href="#HouseSeparator"
         transform="rotate(-162.13423281954127, 0, 0)"
         id="use53" />
      <use
         xlink:href="#HouseSeparator"
         transform="rotate(-183.094053648819, 0, 0)"
         id="use55" />
      <use
         xlink:href="#HouseSeparator"
         transform="rotate(-210.64428430666763, 0, 0)"
         id="use57" />
      <use
         xlink:href="#HouseSeparator"
         transform="rotate(-245.8444672681017, 0, 0)"
         id="use59" />
      <use
         xlink:href="#HouseSeparator"
         transform="rotate(-284.208487754948, 0, 0)"
         id="use61" />
      <use
         xlink:href="#HouseSeparator"
         transform="rotate(-316.57477948791075, 0, 0)"
         id="use63" />
      <use
         xlink:href="#HouseSeparator"
         transform="rotate(-342.13423281954124, 0, 0)"
         id="use65" />
      <use
         xlink:href="#HouseSeparator"
         transform="rotate(-3.094053648818999, 0, 0)"
         id="use67" />
      <use
         xlink:href="#HouseSeparator"
         transform="rotate(-30.6442843066676, 0, 0)"
         id="use69" />
      <use
         xlink:href="#HouseSeparator"
         transform="rotate(-65.84446726810171, 0, 0)"
         id="use71" />
      <use
         xlink:href="#HouseSeparator"
         transform="rotate(-104.208487754948, 0, 0)"
         id="use73" />
      <use
         xlink:href="#HouseSeparator"
         transform="rotate(-136.57477948791075, 0, 0)"
         id="use75" />
    </g>
    <!-- InnerCross -->
    <line
       id="InnerCrossSeparator"
       x1="-90"
       y1="0"
       x2="-221"
       y2="0"
       style="fill:none; stroke:black; stroke-width:3;" />
    <g
       id="InnerCross"
       transform="rotate(162.13423281954127,0,0)">
      <use
         xlink:href="#InnerCrossSeparator"
         transform="rotate(-162.13423281954127,0,0)"
         id="use79" />
      <use
         xlink:href="#InnerCrossSeparator"
         transform="rotate(-65.84446726810171,0,0)"
         id="use81" />
      <use
         xlink:href="#InnerCrossSeparator"
         transform="rotate(-342.13423281954124,0,0)"
         id="use83" />
      <use
         xlink:href="#InnerCrossSeparator"
         transform="rotate(-245.8444672681017,0,0)"
         id="use85" />
    </g>
    <!-- OuterCross -->
    <line
       id="OuterCrossSeparator"
       x1="-309"
       y1="0"
       x2="-339"
       y2="0"
       style="fill:none; stroke:black; stroke-width:3;" />
    <g
       id="OuterCross"
       transform="rotate(162.13423281954127,0,0)">
      <use
         xlink:href="#OuterCrossSeparator"
         transform="rotate(-162.13423281954127,0,0)"
         id="use89" />
      <use
         xlink:href="#OuterCrossSeparator"
         transform="rotate(-65.84446726810171,0,0)"
         id="use91" />
      <use
         xlink:href="#OuterCrossSeparator"
         transform="rotate(-342.13423281954124,0,0)"
         id="use93" />
      <use
         xlink:href="#OuterCrossSeparator"
         transform="rotate(-245.8444672681017,0,0)"
         id="use95" />
    </g>
    <!-- Objects Circle -->
    <line
       id="objPos"
       x1="-210"
       y1="0"
       x2="-221"
       y2="0"
       style="fill:none; stroke:black; stroke-width:1;" />
    <g
       id="Mercury_ObjectsCircle">
      <use
         xlink:href="#Mercury"
         transform="scale(0.025,0.025)"
         id="use99" />
    </g>
    <g
       id="Saturn_ObjectsCircle">
      <use
         xlink:href="#Saturn"
         transform="scale(0.025,0.025)"
         id="use102" />
    </g>
    <g
       id="Mars_ObjectsCircle">
      <use
         xlink:href="#Mars"
         transform="scale(0.025,0.025)"
         id="use105" />
    </g>
    <g
       id="Venus_ObjectsCircle">
      <use
         xlink:href="#Venus"
         transform="scale(0.025,0.025)"
         id="use108" />
    </g>
    <g
       id="Sun_ObjectsCircle">
      <use
         xlink:href="#Sun"
         transform="scale(0.025,0.025)"
         id="use111" />
    </g>
    <g
       id="Jupiter_ObjectsCircle">
      <use
         xlink:href="#Jupiter"
         transform="scale(0.025,0.025)"
         id="use114" />
    </g>
    <g
       id="North Node_ObjectsCircle">
      <use
         xlink:href="#North Node"
         transform="scale(0.025,0.025)"
         id="use117" />
    </g>
    <g
       id="Moon_ObjectsCircle">
      <use
         xlink:href="#Moon"
         transform="scale(0.025,0.025)"
         id="use120" />
    </g>
    <g
       id="South Node_ObjectsCircle">
      <use
         xlink:href="#South Node"
         transform="scale(0.025,0.025)"
         id="use123" />
    </g>
    <g
       id="Pars Fortuna_ObjectsCircle">
      <use
         xlink:href="#Pars Fortuna"
         transform="scale(0.025,0.025)"
         id="use126" />
    </g>
    <g
       id="Aries_ObjectsCircle">
      <use
         xlink:href="#Aries"
         transform="scale(0.012,0.012)"
         id="use129" />
    </g>
    <g
       id="Taurus_ObjectsCircle">
      <use
         xlink:href="#Taurus"
         transform="scale(0.012,0.012)"
         id="use132" />
    </g>
    <g
       id="Gemini_ObjectsCircle">
      <use
         xlink:href="#Gemini"
         transform="scale(0.012,0.012)"
         id="use135" />
    </g>
    <g
       id="Cancer_ObjectsCircle">
      <use
         xlink:href="#Cancer"
         transform="scale(0.012,0.012)"
         id="use138" />
    </g>
    <g
       id="Leo_ObjectsCircle">
      <use
         xlink:href="#Leo"
         transform="scale(0.012,0.012)"
         id="use141" />
    </g>
    <g
       id="Virgo_ObjectsCircle">
      <use
         xlink:href="#Virgo"
         transform="scale(0.012,0.012)"
         id="use144" />
    </g>
    <g
       id="Libra_ObjectsCircle">
      <use
         xlink:href="#Libra"
         transform="scale(0.012,0.012)"
         id="use147" />
    </g>
    <g
       id="Scorpio_ObjectsCircle">
      <use
         xlink:href="#Scorpio"
         transform="scale(0.012,0.012)"
         id="use150" />
    </g>
    <g
       id="Sagittarius_ObjectsCircle">
      <use
         xlink:href="#Sagittarius"
         transform="scale(0.012,0.012)"
         id="use153" />
    </g>
    <g
       id="Capricorn_ObjectsCircle">
      <use
         xlink:href="#Capricorn"
         transform="scale(0.012,0.012)"
         id="use156" />
    </g>
    <g
       id="Aquarius_ObjectsCircle">
      <use
         xlink:href="#Aquarius"
         transform="scale(0.012,0.012)"
         id="use159" />
    </g>
    <g
       id="Pisces_ObjectsCircle">
      <use
         xlink:href="#Pisces"
         transform="scale(0.012,0.012)"
         id="use162" />
    </g>
    <g
       id="ObjectsCircle"
       style="font-family: Arial; font-size: 9pt; fill: black;"
       text-anchor="middle"
       transform="rotate(162.13423281954127,0,0)">
      <use
         xlink:href="#objPos"
         transform="rotate(-204.88877993196851,0,0)"
         id="use165" />
      <use
         xlink:href="#Mercury_ObjectsCircle"
         x="-12.5"
         y="-12.5"
         style=""
         transform="rotate(-196.20125127642356, 0, 0) translate(-190, 0) rotate(34.067018456882295, 0, 0)"
         id="use167" />
      <text
         x="0"
         y=".3em"
         style=""
         transform="rotate(-196.20125127642356, 0, 0) translate(-165, 0) rotate(34.067018456882295, 0, 0)"
         id="text169">24°</text>
      <text
         x="0"
         y=".3em"
         style=""
         transform="rotate(-196.20125127642356, 0, 0) translate(-125, 0) rotate(34.067018456882295, 0, 0)"
         id="text171">53'</text>
      <use
         xlink:href="#Libra_ObjectsCircle"
         x="-6.0"
         y="-6.0"
         style=""
         transform="rotate(-196.20125127642356, 0, 0) translate(-145, 0) rotate(34.067018456882295, 0, 0)"
         id="use173" />
      <text
         x="0"
         y=".3em"
         style=""
         transform="rotate(-196.20125127642356, 0, 0) translate(-105, 0) rotate(34.067018456882295, 0, 0)"
         id="text175">Rx</text>
      <use
         xlink:href="#objPos"
         transform="rotate(-108.90285290627358,0,0)"
         id="use177" />
      <use
         xlink:href="#Saturn_ObjectsCircle"
         x="-12.5"
         y="-12.5"
         style=""
         transform="rotate(-108.90285290627358, 0, 0) translate(-190, 0) rotate(-53.23137991326769, 0, 0)"
         id="use179" />
      <text
         x="0"
         y=".3em"
         style=""
         transform="rotate(-108.90285290627358, 0, 0) translate(-165, 0) rotate(-53.23137991326769, 0, 0)"
         id="text181">18°</text>
      <text
         x="0"
         y=".3em"
         style=""
         transform="rotate(-108.90285290627358, 0, 0) translate(-125, 0) rotate(-53.23137991326769, 0, 0)"
         id="text183">54'</text>
      <use
         xlink:href="#Cancer_ObjectsCircle"
         x="-6.0"
         y="-6.0"
         style=""
         transform="rotate(-108.90285290627358, 0, 0) translate(-145, 0) rotate(-53.23137991326769, 0, 0)"
         id="use185" />
      <text
         x="0"
         y=".3em"
         style=""
         transform="rotate(-108.90285290627358, 0, 0) translate(-105, 0) rotate(-53.23137991326769, 0, 0)"
         id="text187">Rx</text>
      <use
         xlink:href="#objPos"
         transform="rotate(-213.86209117655034,0,0)"
         id="use189" />
      <use
         xlink:href="#Mars_ObjectsCircle"
         x="-12.5"
         y="-12.5"
         style=""
         transform="rotate(-204.20135127642357, 0, 0) translate(-190, 0) rotate(42.0671184568823, 0, 0)"
         id="use191" />
      <text
         x="0"
         y=".3em"
         style=""
         transform="rotate(-204.20135127642357, 0, 0) translate(-165, 0) rotate(42.0671184568823, 0, 0)"
         id="text193">03°</text>
      <text
         x="0"
         y=".3em"
         style=""
         transform="rotate(-204.20135127642357, 0, 0) translate(-125, 0) rotate(42.0671184568823, 0, 0)"
         id="text195">51'</text>
      <use
         xlink:href="#Scorpio_ObjectsCircle"
         x="-6.0"
         y="-6.0"
         style=""
         transform="rotate(-204.20135127642357, 0, 0) translate(-145, 0) rotate(42.0671184568823, 0, 0)"
         id="use197" />
      <use
         xlink:href="#objPos"
         transform="rotate(-219.30987825260914,0,0)"
         id="use199" />
      <use
         xlink:href="#Venus_ObjectsCircle"
         x="-12.5"
         y="-12.5"
         style=""
         transform="rotate(-212.20145127642357, 0, 0) translate(-190, 0) rotate(50.0672184568823, 0, 0)"
         id="use201" />
      <text
         x="0"
         y=".3em"
         style=""
         transform="rotate(-212.20145127642357, 0, 0) translate(-165, 0) rotate(50.0672184568823, 0, 0)"
         id="text203">09°</text>
      <text
         x="0"
         y=".3em"
         style=""
         transform="rotate(-212.20145127642357, 0, 0) translate(-125, 0) rotate(50.0672184568823, 0, 0)"
         id="text205">18'</text>
      <use
         xlink:href="#Scorpio_ObjectsCircle"
         x="-6.0"
         y="-6.0"
         style=""
         transform="rotate(-212.20145127642357, 0, 0) translate(-145, 0) rotate(50.0672184568823, 0, 0)"
         id="use207" />
      <use
         xlink:href="#objPos"
         transform="rotate(-220.20155127642357,0,0)"
         id="use209" />
      <use
         xlink:href="#Sun_ObjectsCircle"
         x="-12.5"
         y="-12.5"
         style=""
         transform="rotate(-220.20155127642357, 0, 0) translate(-190, 0) rotate(58.067318456882305, 0, 0)"
         id="use211" />
      <text
         x="0"
         y=".3em"
         style=""
         transform="rotate(-220.20155127642357, 0, 0) translate(-165, 0) rotate(58.067318456882305, 0, 0)"
         id="text213">10°</text>
      <text
         x="0"
         y=".3em"
         style=""
         transform="rotate(-220.20155127642357, 0, 0) translate(-125, 0) rotate(58.067318456882305, 0, 0)"
         id="text215">12'</text>
      <use
         xlink:href="#Scorpio_ObjectsCircle"
         x="-6.0"
         y="-6.0"
         style=""
         transform="rotate(-220.20155127642357, 0, 0) translate(-145, 0) rotate(58.067318456882305, 0, 0)"
         id="use217" />
      <use
         xlink:href="#objPos"
         transform="rotate(-337.9874399230923,0,0)"
         id="use219" />
      <use
         xlink:href="#Jupiter_ObjectsCircle"
         x="-12.5"
         y="-12.5"
         style=""
         transform="rotate(-337.9874399230923, 0, 0) translate(-190, 0) rotate(175.85320710355106, 0, 0)"
         id="use221" />
      <text
         x="0"
         y=".3em"
         style=""
         transform="rotate(-337.9874399230923, 0, 0) translate(-165, 0) rotate(175.85320710355106, 0, 0)"
         id="text223">07°</text>
      <text
         x="0"
         y=".3em"
         style=""
         transform="rotate(-337.9874399230923, 0, 0) translate(-125, 0) rotate(175.85320710355106, 0, 0)"
         id="text225">59'</text>
      <use
         xlink:href="#Pisces_ObjectsCircle"
         x="-6.0"
         y="-6.0"
         style=""
         transform="rotate(-337.9874399230923, 0, 0) translate(-145, 0) rotate(175.85320710355106, 0, 0)"
         id="use227" />
      <text
         x="0"
         y=".3em"
         style=""
         transform="rotate(-337.9874399230923, 0, 0) translate(-105, 0) rotate(175.85320710355106, 0, 0)"
         id="text229">Rx</text>
      <use
         xlink:href="#objPos"
         transform="rotate(-251.71947021559978,0,0)"
         id="use231" />
      <use
         xlink:href="#North Node_ObjectsCircle"
         x="-12.5"
         y="-12.5"
         style=""
         transform="rotate(-251.71947021559978, 0, 0) translate(-190, 0) rotate(89.58523739605852, 0, 0)"
         id="use233" />
      <text
         x="0"
         y=".3em"
         style=""
         transform="rotate(-251.71947021559978, 0, 0) translate(-165, 0) rotate(89.58523739605852, 0, 0)"
         id="text235">11°</text>
      <text
         x="0"
         y=".3em"
         style=""
         transform="rotate(-251.71947021559978, 0, 0) translate(-125, 0) rotate(89.58523739605852, 0, 0)"
         id="text237">43'</text>
      <use
         xlink:href="#Sagittarius_ObjectsCircle"
         x="-6.0"
         y="-6.0"
         style=""
         transform="rotate(-251.71947021559978, 0, 0) translate(-145, 0) rotate(89.58523739605852, 0, 0)"
         id="use239" />
      <text
         x="0"
         y=".3em"
         style=""
         transform="rotate(-251.71947021559978, 0, 0) translate(-105, 0) rotate(89.58523739605852, 0, 0)"
         id="text241">Rx</text>
      <use
         xlink:href="#objPos"
         transform="rotate(-77.02185899335339,0,0)"
         id="use243" />
      <use
         xlink:href="#Moon_ObjectsCircle"
         x="-12.5"
         y="-12.5"
         style=""
         transform="rotate(-77.02185899335339, 0, 0) translate(-190, 0) rotate(-85.11237382618788, 0, 0)"
         id="use245" />
      <text
         x="0"
         y=".3em"
         style=""
         transform="rotate(-77.02185899335339, 0, 0) translate(-165, 0) rotate(-85.11237382618788, 0, 0)"
         id="text247">17°</text>
      <text
         x="0"
         y=".3em"
         style=""
         transform="rotate(-77.02185899335339, 0, 0) translate(-125, 0) rotate(-85.11237382618788, 0, 0)"
         id="text249">01'</text>
      <use
         xlink:href="#Gemini_ObjectsCircle"
         x="-6.0"
         y="-6.0"
         style=""
         transform="rotate(-77.02185899335339, 0, 0) translate(-145, 0) rotate(-85.11237382618788, 0, 0)"
         id="use251" />
      <use
         xlink:href="#objPos"
         transform="rotate(-71.71947021559981,0,0)"
         id="use253" />
      <use
         xlink:href="#South Node_ObjectsCircle"
         x="-12.5"
         y="-12.5"
         style=""
         transform="rotate(-69.02175899335339, 0, 0) translate(-190, 0) rotate(-93.11247382618788, 0, 0)"
         id="use255" />
      <text
         x="0"
         y=".3em"
         style=""
         transform="rotate(-69.02175899335339, 0, 0) translate(-165, 0) rotate(-93.11247382618788, 0, 0)"
         id="text257">11°</text>
      <text
         x="0"
         y=".3em"
         style=""
         transform="rotate(-69.02175899335339, 0, 0) translate(-125, 0) rotate(-93.11247382618788, 0, 0)"
         id="text259">43'</text>
      <use
         xlink:href="#Gemini_ObjectsCircle"
         x="-6.0"
         y="-6.0"
         style=""
         transform="rotate(-69.02175899335339, 0, 0) translate(-145, 0) rotate(-93.11247382618788, 0, 0)"
         id="use261" />
      <text
         x="0"
         y=".3em"
         style=""
         transform="rotate(-69.02175899335339, 0, 0) translate(-105, 0) rotate(-93.11247382618788, 0, 0)"
         id="text263">Rx</text>
      <use
         xlink:href="#objPos"
         transform="rotate(-305.3139251026115,0,0)"
         id="use265" />
      <use
         xlink:href="#Pars Fortuna_ObjectsCircle"
         x="-12.5"
         y="-12.5"
         style=""
         transform="rotate(-305.3139251026115, 0, 0) translate(-190, 0) rotate(143.17969228307024, 0, 0)"
         id="use267" />
      <text
         x="0"
         y=".3em"
         style=""
         transform="rotate(-305.3139251026115, 0, 0) translate(-165, 0) rotate(143.17969228307024, 0, 0)"
         id="text269">05°</text>
      <text
         x="0"
         y=".3em"
         style=""
         transform="rotate(-305.3139251026115, 0, 0) translate(-125, 0) rotate(143.17969228307024, 0, 0)"
         id="text271">18'</text>
      <use
         xlink:href="#Aquarius_ObjectsCircle"
         x="-6.0"
         y="-6.0"
         style=""
         transform="rotate(-305.3139251026115, 0, 0) translate(-145, 0) rotate(143.17969228307024, 0, 0)"
         id="use273" />
    </g>
    <!-- Declare sign glyphs -->
    <line
       id="SignCircleSeparator"
       x1="-225"
       y1="0"
       x2="-305"
       y2="0"
       style="fill:none; stroke:black; stroke-width:2;" />
    <g
       id="Aries_SignCircle">
      <use
         xlink:href="#Aries"
         transform="scale(0.036,0.03)"
         id="use277" />
    </g>
    <g
       id="Taurus_SignCircle">
      <use
         xlink:href="#Taurus"
         transform="scale(0.036,0.03)"
         id="use280" />
    </g>
    <g
       id="Gemini_SignCircle">
      <use
         xlink:href="#Gemini"
         transform="scale(0.036,0.03)"
         id="use283" />
    </g>
    <g
       id="Cancer_SignCircle">
      <use
         xlink:href="#Cancer"
         transform="scale(0.036,0.03)"
         id="use286" />
    </g>
    <g
       id="Leo_SignCircle">
      <use
         xlink:href="#Leo"
         transform="scale(0.036,0.03)"
         id="use289" />
    </g>
    <g
       id="Virgo_SignCircle">
      <use
         xlink:href="#Virgo"
         transform="scale(0.036,0.03)"
         id="use292" />
    </g>
    <g
       id="Libra_SignCircle">
      <use
         xlink:href="#Libra"
         transform="scale(0.036,0.03)"
         id="use295" />
    </g>
    <g
       id="Scorpio_SignCircle">
      <use
         xlink:href="#Scorpio"
         transform="scale(0.036,0.03)"
         id="use298" />
    </g>
    <g
       id="Sagittarius_SignCircle">
      <use
         xlink:href="#Sagittarius"
         transform="scale(0.036,0.03)"
         id="use301" />
    </g>
    <g
       id="Capricorn_SignCircle">
      <use
         xlink:href="#Capricorn"
         transform="scale(0.036,0.03)"
         id="use304" />
    </g>
    <g
       id="Aquarius_SignCircle">
      <use
         xlink:href="#Aquarius"
         transform="scale(0.036,0.03)"
         id="use307" />
    </g>
    <g
       id="Pisces_SignCircle">
      <use
         xlink:href="#Pisces"
         transform="scale(0.036,0.03)"
         id="use310" />
    </g>
    <g
       id="SignCircle"
       transform="rotate(162.13423281954127,0,0)">
      <circle
         cx="0"
         cy="0"
         r="265.0"
         style="fill:none; stroke:rgb(255,255,239);"
         stroke-width="80"
         id="circle313"
         d="M 265,0 A 265,265 0 0 1 0,265 265,265 0 0 1 -265,0 265,265 0 0 1 0,-265 265,265 0 0 1 265,0 Z" />
      <circle
         cx="0"
         cy="0"
         r="225"
         style="fill:none; stroke:black; stroke-width:2;"
         id="circle315"
         d="M 225,0 A 225,225 0 0 1 0,225 225,225 0 0 1 -225,0 225,225 0 0 1 0,-225 225,225 0 0 1 225,0 Z" />
      <circle
         cx="0"
         cy="0"
         r="305"
         style="fill:none; stroke:black; stroke-width:2;"
         id="circle317"
         d="M 305,0 A 305,305 0 0 1 0,305 305,305 0 0 1 -305,0 305,305 0 0 1 0,-305 305,305 0 0 1 305,0 Z" />
      <circle
         cx="0"
         cy="0"
         r="221"
         style="fill:none; stroke:rgb(150,150,150); stroke-width:1;"
         id="circle319"
         d="M 221,0 A 221,221 0 0 1 0,221 221,221 0 0 1 -221,0 221,221 0 0 1 0,-221 221,221 0 0 1 221,0 Z" />
      <circle
         cx="0"
         cy="0"
         r="309"
         style="fill:none; stroke:rgb(150,150,150); stroke-width:1;"
         id="circle321"
         d="M 309,0 A 309,309 0 0 1 0,309 309,309 0 0 1 -309,0 309,309 0 0 1 0,-309 309,309 0 0 1 309,0 Z" />
      <use
         xlink:href="#SignCircleSeparator"
         transform="rotate(0,0,0)"
         id="use323" />
      <use
         xlink:href="#Aries_SignCircle"
         x="-18.0"
         y="-15.0"
         style="fill:rgb(161,8,7);"
         transform="rotate(-15, 0, 0) translate(-268.0, 0) rotate(-90, 0, 0)"
         id="use325" />
      <use
         xlink:href="#SignCircleSeparator"
         transform="rotate(30,0,0)"
         id="use327" />
      <use
         xlink:href="#Taurus_SignCircle"
         x="-18.0"
         y="-15.0"
         style="fill:rgb(148,143,52);"
         transform="rotate(-45, 0, 0) translate(-268.0, 0) rotate(-90, 0, 0)"
         id="use329" />
      <use
         xlink:href="#SignCircleSeparator"
         transform="rotate(60,0,0)"
         id="use331" />
      <use
         xlink:href="#Gemini_SignCircle"
         x="-18.0"
         y="-15.0"
         style="fill:rgb(124,93,188);"
         transform="rotate(-75, 0, 0) translate(-268.0, 0) rotate(-90, 0, 0)"
         id="use333" />
      <use
         xlink:href="#SignCircleSeparator"
         transform="rotate(90,0,0)"
         id="use335" />
      <use
         xlink:href="#Cancer_SignCircle"
         x="-18.0"
         y="-15.0"
         style="fill:rgb(18,13,106);"
         transform="rotate(-105, 0, 0) translate(-268.0, 0) rotate(-90, 0, 0)"
         id="use337" />
      <use
         xlink:href="#SignCircleSeparator"
         transform="rotate(120,0,0)"
         id="use339" />
      <use
         xlink:href="#Leo_SignCircle"
         x="-18.0"
         y="-15.0"
         style="fill:rgb(161,8,7);"
         transform="rotate(-135, 0, 0) translate(-268.0, 0) rotate(-90, 0, 0)"
         id="use341" />
      <use
         xlink:href="#SignCircleSeparator"
         transform="rotate(150,0,0)"
         id="use343" />
      <use
         xlink:href="#Virgo_SignCircle"
         x="-18.0"
         y="-15.0"
         style="fill:rgb(148,143,52);"
         transform="rotate(-165, 0, 0) translate(-268.0, 0) rotate(-90, 0, 0)"
         id="use345" />
      <use
         xlink:href="#SignCircleSeparator"
         transform="rotate(180,0,0)"
         id="use347" />
      <use
         xlink:href="#Libra_SignCircle"
         x="-18.0"
         y="-15.0"
         style="fill:rgb(124,93,188);"
         transform="rotate(-195, 0, 0) translate(-268.0, 0) rotate(-90, 0, 0)"
         id="use349" />
      <use
         xlink:href="#SignCircleSeparator"
         transform="rotate(210,0,0)"
         id="use351" />
      <use
         xlink:href="#Scorpio_SignCircle"
         x="-18.0"
         y="-15.0"
         style="fill:rgb(18,13,106);"
         transform="rotate(-225, 0, 0) translate(-268.0, 0) rotate(-90, 0, 0)"
         id="use353" />
      <use
         xlink:href="#SignCircleSeparator"
         transform="rotate(240,0,0)"
         id="use355" />
      <use
         xlink:href="#Sagittarius_SignCircle"
         x="-18.0"
         y="-15.0"
         style="fill:rgb(161,8,7);"
         transform="rotate(-255, 0, 0) translate(-268.0, 0) rotate(-90, 0, 0)"
         id="use357" />
      <use
         xlink:href="#SignCircleSeparator"
         transform="rotate(270,0,0)"
         id="use359" />
      <use
         xlink:href="#Capricorn_SignCircle"
         x="-18.0"
         y="-15.0"
         style="fill:rgb(148,143,52);"
         transform="rotate(-285, 0, 0) translate(-268.0, 0) rotate(-90, 0, 0)"
         id="use361" />
      <use
         xlink:href="#SignCircleSeparator"
         transform="rotate(300,0,0)"
         id="use363" />
      <use
         xlink:href="#Aquarius_SignCircle"
         x="-18.0"
         y="-15.0"
         style="fill:rgb(124,93,188);"
         transform="rotate(-315, 0, 0) translate(-268.0, 0) rotate(-90, 0, 0)"
         id="use365" />
      <use
         xlink:href="#SignCircleSeparator"
         transform="rotate(330,0,0)"
         id="use367" />
      <use
         xlink:href="#Pisces_SignCircle"
         x="-18.0"
         y="-15.0"
         style="fill:rgb(18,13,106);"
         transform="rotate(-345, 0, 0) translate(-268.0, 0) rotate(-90, 0, 0)"
         id="use369" />
    </g>
    <!-- Declare ticks -->
    <line
       id="ticks0"
       x1="-226"
       y1="0"
       x2="-233"
       y2="0"
       style="fill:none; stroke:black; stroke-width:1;" />
    <line
       id="ticks1"
       x1="-226"
       y1="0"
       x2="-233"
       y2="0"
       style="fill:none; stroke:rgb(180,180,180); stroke-width:1;" />
    <line
       id="ticks5"
       x1="-226"
       y1="0"
       x2="-233"
       y2="0"
       style="fill:none; stroke:rgb(180,180,180); stroke-width:1;" />
    <line
       id="ticks10"
       x1="-226"
       y1="0"
       x2="-233"
       y2="0"
       style="fill:none; stroke:rgb(180,180,180); stroke-width:1;" />
    <g
       id="SignTicksCircle"
       transform="rotate(162.13423281954127, 0, 0)">
      <g
         id="group_10_ticks">
        <use
           xlink:href="#ticks1"
           transform="rotate(1,0,0)"
           id="use377" />
        <use
           xlink:href="#ticks1"
           transform="rotate(2,0,0)"
           id="use379" />
        <use
           xlink:href="#ticks1"
           transform="rotate(3,0,0)"
           id="use381" />
        <use
           xlink:href="#ticks1"
           transform="rotate(4,0,0)"
           id="use383" />
        <use
           xlink:href="#ticks5"
           transform="rotate(5,0,0)"
           id="use385" />
        <use
           xlink:href="#ticks1"
           transform="rotate(6,0,0)"
           id="use387" />
        <use
           xlink:href="#ticks1"
           transform="rotate(7,0,0)"
           id="use389" />
        <use
           xlink:href="#ticks1"
           transform="rotate(8,0,0)"
           id="use391" />
        <use
           xlink:href="#ticks1"
           transform="rotate(9,0,0)"
           id="use393" />
        <use
           xlink:href="#ticks10"
           transform="rotate(10,0,0)"
           id="use395" />
      </g>
      <g
         id="group_sign_ticks">
        <use
           xlink:href="#ticks0"
           transform=""
           id="use398" />
        <use
           xlink:href="#group_10_ticks"
           transform=""
           id="use400" />
        <use
           xlink:href="#group_10_ticks"
           transform="rotate(10,0,0)"
           id="use402" />
        <use
           xlink:href="#group_10_ticks"
           transform="rotate(20,0,0)"
           id="use404" />
      </g>
      <g
         id="circle_signticks">
        <use
           xlink:href="#group_sign_ticks"
           transform="rotate(000,0,0)"
           id="use407" />
        <use
           xlink:href="#group_sign_ticks"
           transform="rotate(030,0,0)"
           id="use409" />
        <use
           xlink:href="#group_sign_ticks"
           transform="rotate(060,0,0)"
           id="use411" />
        <use
           xlink:href="#group_sign_ticks"
           transform="rotate(090,0,0)"
           id="use413" />
        <use
           xlink:href="#group_sign_ticks"
           transform="rotate(120,0,0)"
           id="use415" />
        <use
           xlink:href="#group_sign_ticks"
           transform="rotate(150,0,0)"
           id="use417" />
        <use
           xlink:href="#group_sign_ticks"
           transform="rotate(180,0,0)"
           id="use419" />
        <use
           xlink:href="#group_sign_ticks"
           transform="rotate(210,0,0)"
           id="use421" />
        <use
           xlink:href="#group_sign_ticks"
           transform="rotate(240,0,0)"
           id="use423" />
        <use
           xlink:href="#group_sign_ticks"
           transform="rotate(270,0,0)"
           id="use425" />
        <use
           xlink:href="#group_sign_ticks"
           transform="rotate(300,0,0)"
           id="use427" />
        <use
           xlink:href="#group_sign_ticks"
           transform="rotate(330,0,0)"
           id="use429" />
        <use
           xlink:href="#ticks0"
           transform=""
           id="use431" />
      </g>
    </g>
    <!-- Terms circle -->
    <g
       id="SunTermsCircle">
      <use
         xlink:href="#Sun"
         transform="scale(0.01,0.01)"
         id="use434" />
    </g>
    <g
       id="MoonTermsCircle">
      <use
         xlink:href="#Moon"
         transform="scale(0.01,0.01)"
         id="use437" />
    </g>
    <g
       id="MercuryTermsCircle">
      <use
         xlink:href="#Mercury"
         transform="scale(0.01,0.01)"
         id="use440" />
    </g>
    <g
       id="VenusTermsCircle">
      <use
         xlink:href="#Venus"
         transform="scale(0.01,0.01)"
         id="use443" />
    </g>
    <g
       id="MarsTermsCircle">
      <use
         xlink:href="#Mars"
         transform="scale(0.01,0.01)"
         id="use446" />
    </g>
    <g
       id="JupiterTermsCircle">
      <use
         xlink:href="#Jupiter"
         transform="scale(0.01,0.01)"
         id="use449" />
    </g>
    <g
       id="SaturnTermsCircle">
      <use
         xlink:href="#Saturn"
         transform="scale(0.01,0.01)"
         id="use452" />
    </g>
    <line
       id="termscircleSeparator"
       x1="-233"
       y1="0"
       x2="-248"
       y2="0"
       style="fill:none; stroke:black; stroke-width:1;" />
    <line
       id="facescircleSeparator"
       x1="-290"
       y1="0"
       x2="-305"
       y2="0"
       style="fill:none; stroke:black; stroke-width:1;" />
    <g
       id="TermsCircle"
       transform="rotate(162.13423281954127,0,0)">
      <circle
         cx="0"
         cy="0"
         r="240.5"
         style="fill:none;"
         stroke-width="15"
         id="circle457"
         d="M 240.5,0 A 240.5,240.5 0 0 1 0,240.5 240.5,240.5 0 0 1 -240.5,0 240.5,240.5 0 0 1 0,-240.5 240.5,240.5 0 0 1 240.5,0 Z" />
      <circle
         cx="0"
         cy="0"
         r="233"
         style="fill:none; stroke:black; stroke-width:1;"
         id="circle459"
         d="M 233,0 A 233,233 0 0 1 0,233 233,233 0 0 1 -233,0 233,233 0 0 1 0,-233 233,233 0 0 1 233,0 Z" />
      <circle
         cx="0"
         cy="0"
         r="248"
         style="fill:none; stroke:black; stroke-width:1;"
         id="circle461"
         d="M 248,0 A 248,248 0 0 1 0,248 248,248 0 0 1 -248,0 248,248 0 0 1 0,-248 248,248 0 0 1 248,0 Z" />
      <use
         xlink:href="#termscircleSeparator"
         transform="rotate(0,0,0)"
         id="use463" />
      <use
         xlink:href="#JupiterTermsCircle"
         x="-5.0"
         y="-5.0"
         style=""
         transform="rotate(-3.0, 0, 0) translate(-240.5, 0) rotate(-159.13423281954127, 0, 0)"
         id="use465" />
      <use
         xlink:href="#termscircleSeparator"
         transform="rotate(-6,0,0)"
         id="use467" />
      <use
         xlink:href="#VenusTermsCircle"
         x="-5.0"
         y="-5.0"
         style=""
         transform="rotate(-9.0, 0, 0) translate(-240.5, 0) rotate(-153.13423281954127, 0, 0)"
         id="use469" />
      <use
         xlink:href="#termscircleSeparator"
         transform="rotate(-12,0,0)"
         id="use471" />
      <use
         xlink:href="#MercuryTermsCircle"
         x="-5.0"
         y="-5.0"
         style=""
         transform="rotate(-16.0, 0, 0) translate(-240.5, 0) rotate(-146.13423281954127, 0, 0)"
         id="use473" />
      <use
         xlink:href="#termscircleSeparator"
         transform="rotate(-20,0,0)"
         id="use475" />
      <use
         xlink:href="#MarsTermsCircle"
         x="-5.0"
         y="-5.0"
         style=""
         transform="rotate(-22.5, 0, 0) translate(-240.5, 0) rotate(-139.63423281954127, 0, 0)"
         id="use477" />
      <use
         xlink:href="#termscircleSeparator"
         transform="rotate(-25,0,0)"
         id="use479" />
      <use
         xlink:href="#SaturnTermsCircle"
         x="-5.0"
         y="-5.0"
         style=""
         transform="rotate(-27.5, 0, 0) translate(-240.5, 0) rotate(-134.63423281954127, 0, 0)"
         id="use481" />
      <use
         xlink:href="#termscircleSeparator"
         transform="rotate(-30,0,0)"
         id="use483" />
      <use
         xlink:href="#VenusTermsCircle"
         x="-5.0"
         y="-5.0"
         style=""
         transform="rotate(-34.0, 0, 0) translate(-240.5, 0) rotate(-128.13423281954127, 0, 0)"
         id="use485" />
      <use
         xlink:href="#termscircleSeparator"
         transform="rotate(-38,0,0)"
         id="use487" />
      <use
         xlink:href="#MercuryTermsCircle"
         x="-5.0"
         y="-5.0"
         style=""
         transform="rotate(-41.0, 0, 0) translate(-240.5, 0) rotate(-121.13423281954127, 0, 0)"
         id="use489" />
      <use
         xlink:href="#termscircleSeparator"
         transform="rotate(-44,0,0)"
         id="use491" />
      <use
         xlink:href="#JupiterTermsCircle"
         x="-5.0"
         y="-5.0"
         style=""
         transform="rotate(-48.0, 0, 0) translate(-240.5, 0) rotate(-114.13423281954127, 0, 0)"
         id="use493" />
      <use
         xlink:href="#termscircleSeparator"
         transform="rotate(-52,0,0)"
         id="use495" />
      <use
         xlink:href="#SaturnTermsCircle"
         x="-5.0"
         y="-5.0"
         style=""
         transform="rotate(-54.5, 0, 0) translate(-240.5, 0) rotate(-107.63423281954127, 0, 0)"
         id="use497" />
      <use
         xlink:href="#termscircleSeparator"
         transform="rotate(-57,0,0)"
         id="use499" />
      <use
         xlink:href="#MarsTermsCircle"
         x="-5.0"
         y="-5.0"
         style=""
         transform="rotate(-58.5, 0, 0) translate(-240.5, 0) rotate(-103.63423281954127, 0, 0)"
         id="use501" />
      <use
         xlink:href="#termscircleSeparator"
         transform="rotate(-60,0,0)"
         id="use503" />
      <use
         xlink:href="#MercuryTermsCircle"
         x="-5.0"
         y="-5.0"
         style=""
         transform="rotate(-63.0, 0, 0) translate(-240.5, 0) rotate(-99.13423281954127, 0, 0)"
         id="use505" />
      <use
         xlink:href="#termscircleSeparator"
         transform="rotate(-66,0,0)"
         id="use507" />
      <use
         xlink:href="#JupiterTermsCircle"
         x="-5.0"
         y="-5.0"
         style=""
         transform="rotate(-69.0, 0, 0) translate(-240.5, 0) rotate(-93.13423281954127, 0, 0)"
         id="use509" />
      <use
         xlink:href="#termscircleSeparator"
         transform="rotate(-72,0,0)"
         id="use511" />
      <use
         xlink:href="#VenusTermsCircle"
         x="-5.0"
         y="-5.0"
         style=""
         transform="rotate(-74.5, 0, 0) translate(-240.5, 0) rotate(-87.63423281954127, 0, 0)"
         id="use513" />
      <use
         xlink:href="#termscircleSeparator"
         transform="rotate(-77,0,0)"
         id="use515" />
      <use
         xlink:href="#MarsTermsCircle"
         x="-5.0"
         y="-5.0"
         style=""
         transform="rotate(-80.5, 0, 0) translate(-240.5, 0) rotate(-81.63423281954127, 0, 0)"
         id="use517" />
      <use
         xlink:href="#termscircleSeparator"
         transform="rotate(-84,0,0)"
         id="use519" />
      <use
         xlink:href="#SaturnTermsCircle"
         x="-5.0"
         y="-5.0"
         style=""
         transform="rotate(-87.0, 0, 0) translate(-240.5, 0) rotate(-75.13423281954127, 0, 0)"
         id="use521" />
      <use
         xlink:href="#termscircleSeparator"
         transform="rotate(-90,0,0)"
         id="use523" />
      <use
         xlink:href="#MarsTermsCircle"
         x="-5.0"
         y="-5.0"
         style=""
         transform="rotate(-93.5, 0, 0) translate(-240.5, 0) rotate(-68.63423281954127, 0, 0)"
         id="use525" />
      <use
         xlink:href="#termscircleSeparator"
         transform="rotate(-97,0,0)"
         id="use527" />
      <use
         xlink:href="#VenusTermsCircle"
         x="-5.0"
         y="-5.0"
         style=""
         transform="rotate(-100.0, 0, 0) translate(-240.5, 0) rotate(-62.13423281954127, 0, 0)"
         id="use529" />
      <use
         xlink:href="#termscircleSeparator"
         transform="rotate(-103,0,0)"
         id="use531" />
      <use
         xlink:href="#MercuryTermsCircle"
         x="-5.0"
         y="-5.0"
         style=""
         transform="rotate(-106.0, 0, 0) translate(-240.5, 0) rotate(-56.13423281954127, 0, 0)"
         id="use533" />
      <use
         xlink:href="#termscircleSeparator"
         transform="rotate(-109,0,0)"
         id="use535" />
      <use
         xlink:href="#JupiterTermsCircle"
         x="-5.0"
         y="-5.0"
         style=""
         transform="rotate(-112.5, 0, 0) translate(-240.5, 0) rotate(-49.63423281954127, 0, 0)"
         id="use537" />
      <use
         xlink:href="#termscircleSeparator"
         transform="rotate(-116,0,0)"
         id="use539" />
      <use
         xlink:href="#SaturnTermsCircle"
         x="-5.0"
         y="-5.0"
         style=""
         transform="rotate(-118.0, 0, 0) translate(-240.5, 0) rotate(-44.13423281954127, 0, 0)"
         id="use541" />
      <use
         xlink:href="#termscircleSeparator"
         transform="rotate(-120,0,0)"
         id="use543" />
      <use
         xlink:href="#JupiterTermsCircle"
         x="-5.0"
         y="-5.0"
         style=""
         transform="rotate(-123.0, 0, 0) translate(-240.5, 0) rotate(-39.13423281954127, 0, 0)"
         id="use545" />
      <use
         xlink:href="#termscircleSeparator"
         transform="rotate(-126,0,0)"
         id="use547" />
      <use
         xlink:href="#VenusTermsCircle"
         x="-5.0"
         y="-5.0"
         style=""
         transform="rotate(-128.5, 0, 0) translate(-240.5, 0) rotate(-33.63423281954127, 0, 0)"
         id="use549" />
      <use
         xlink:href="#termscircleSeparator"
         transform="rotate(-131,0,0)"
         id="use551" />
      <use
         xlink:href="#SaturnTermsCircle"
         x="-5.0"
         y="-5.0"
         style=""
         transform="rotate(-134.5, 0, 0) translate(-240.5, 0) rotate(-27.634232819541268, 0, 0)"
         id="use553" />
      <use
         xlink:href="#termscircleSeparator"
         transform="rotate(-138,0,0)"
         id="use555" />
      <use
         xlink:href="#MercuryTermsCircle"
         x="-5.0"
         y="-5.0"
         style=""
         transform="rotate(-141.0, 0, 0) translate(-240.5, 0) rotate(-21.134232819541268, 0, 0)"
         id="use557" />
      <use
         xlink:href="#termscircleSeparator"
         transform="rotate(-144,0,0)"
         id="use559" />
      <use
         xlink:href="#MarsTermsCircle"
         x="-5.0"
         y="-5.0"
         style=""
         transform="rotate(-147.0, 0, 0) translate(-240.5, 0) rotate(-15.134232819541268, 0, 0)"
         id="use561" />
      <use
         xlink:href="#termscircleSeparator"
         transform="rotate(-150,0,0)"
         id="use563" />
      <use
         xlink:href="#MercuryTermsCircle"
         x="-5.0"
         y="-5.0"
         style=""
         transform="rotate(-153.5, 0, 0) translate(-240.5, 0) rotate(-8.634232819541268, 0, 0)"
         id="use565" />
      <use
         xlink:href="#termscircleSeparator"
         transform="rotate(-157,0,0)"
         id="use567" />
      <use
         xlink:href="#VenusTermsCircle"
         x="-5.0"
         y="-5.0"
         style=""
         transform="rotate(-162.0, 0, 0) translate(-240.5, 0) rotate(-0.13423281954126765, 0, 0)"
         id="use569" />
      <use
         xlink:href="#termscircleSeparator"
         transform="rotate(-167,0,0)"
         id="use571" />
      <use
         xlink:href="#JupiterTermsCircle"
         x="-5.0"
         y="-5.0"
         style=""
         transform="rotate(-169.0, 0, 0) translate(-240.5, 0) rotate(6.865767180458732, 0, 0)"
         id="use573" />
      <use
         xlink:href="#termscircleSeparator"
         transform="rotate(-171,0,0)"
         id="use575" />
      <use
         xlink:href="#MarsTermsCircle"
         x="-5.0"
         y="-5.0"
         style=""
         transform="rotate(-174.5, 0, 0) translate(-240.5, 0) rotate(12.365767180458732, 0, 0)"
         id="use577" />
      <use
         xlink:href="#termscircleSeparator"
         transform="rotate(-178,0,0)"
         id="use579" />
      <use
         xlink:href="#SaturnTermsCircle"
         x="-5.0"
         y="-5.0"
         style=""
         transform="rotate(-179.0, 0, 0) translate(-240.5, 0) rotate(16.865767180458732, 0, 0)"
         id="use581" />
      <use
         xlink:href="#termscircleSeparator"
         transform="rotate(-180,0,0)"
         id="use583" />
      <use
         xlink:href="#SaturnTermsCircle"
         x="-5.0"
         y="-5.0"
         style=""
         transform="rotate(-183.0, 0, 0) translate(-240.5, 0) rotate(20.865767180458732, 0, 0)"
         id="use585" />
      <use
         xlink:href="#termscircleSeparator"
         transform="rotate(-186,0,0)"
         id="use587" />
      <use
         xlink:href="#MercuryTermsCircle"
         x="-5.0"
         y="-5.0"
         style=""
         transform="rotate(-190.0, 0, 0) translate(-240.5, 0) rotate(27.865767180458732, 0, 0)"
         id="use589" />
      <use
         xlink:href="#termscircleSeparator"
         transform="rotate(-194,0,0)"
         id="use591" />
      <use
         xlink:href="#JupiterTermsCircle"
         x="-5.0"
         y="-5.0"
         style=""
         transform="rotate(-197.5, 0, 0) translate(-240.5, 0) rotate(35.36576718045873, 0, 0)"
         id="use593" />
      <use
         xlink:href="#termscircleSeparator"
         transform="rotate(-201,0,0)"
         id="use595" />
      <use
         xlink:href="#VenusTermsCircle"
         x="-5.0"
         y="-5.0"
         style=""
         transform="rotate(-204.5, 0, 0) translate(-240.5, 0) rotate(42.36576718045873, 0, 0)"
         id="use597" />
      <use
         xlink:href="#termscircleSeparator"
         transform="rotate(-208,0,0)"
         id="use599" />
      <use
         xlink:href="#MarsTermsCircle"
         x="-5.0"
         y="-5.0"
         style=""
         transform="rotate(-209.0, 0, 0) translate(-240.5, 0) rotate(46.86576718045873, 0, 0)"
         id="use601" />
      <use
         xlink:href="#termscircleSeparator"
         transform="rotate(-210,0,0)"
         id="use603" />
      <use
         xlink:href="#MarsTermsCircle"
         x="-5.0"
         y="-5.0"
         style=""
         transform="rotate(-213.5, 0, 0) translate(-240.5, 0) rotate(51.36576718045873, 0, 0)"
         id="use605" />
      <use
         xlink:href="#termscircleSeparator"
         transform="rotate(-217,0,0)"
         id="use607" />
      <use
         xlink:href="#VenusTermsCircle"
         x="-5.0"
         y="-5.0"
         style=""
         transform="rotate(-219.0, 0, 0) translate(-240.5, 0) rotate(56.86576718045873, 0, 0)"
         id="use609" />
      <use
         xlink:href="#termscircleSeparator"
         transform="rotate(-221,0,0)"
         id="use611" />
      <use
         xlink:href="#MercuryTermsCircle"
         x="-5.0"
         y="-5.0"
         style=""
         transform="rotate(-225.0, 0, 0) translate(-240.5, 0) rotate(62.86576718045873, 0, 0)"
         id="use613" />
      <use
         xlink:href="#termscircleSeparator"
         transform="rotate(-229,0,0)"
         id="use615" />
      <use
         xlink:href="#JupiterTermsCircle"
         x="-5.0"
         y="-5.0"
         style=""
         transform="rotate(-231.5, 0, 0) translate(-240.5, 0) rotate(69.36576718045873, 0, 0)"
         id="use617" />
      <use
         xlink:href="#termscircleSeparator"
         transform="rotate(-234,0,0)"
         id="use619" />
      <use
         xlink:href="#SaturnTermsCircle"
         x="-5.0"
         y="-5.0"
         style=""
         transform="rotate(-237.0, 0, 0) translate(-240.5, 0) rotate(74.86576718045873, 0, 0)"
         id="use621" />
      <use
         xlink:href="#termscircleSeparator"
         transform="rotate(-240,0,0)"
         id="use623" />
      <use
         xlink:href="#JupiterTermsCircle"
         x="-5.0"
         y="-5.0"
         style=""
         transform="rotate(-246.0, 0, 0) translate(-240.5, 0) rotate(83.86576718045873, 0, 0)"
         id="use625" />
      <use
         xlink:href="#termscircleSeparator"
         transform="rotate(-252,0,0)"
         id="use627" />
      <use
         xlink:href="#VenusTermsCircle"
         x="-5.0"
         y="-5.0"
         style=""
         transform="rotate(-254.5, 0, 0) translate(-240.5, 0) rotate(92.36576718045873, 0, 0)"
         id="use629" />
      <use
         xlink:href="#termscircleSeparator"
         transform="rotate(-257,0,0)"
         id="use631" />
      <use
         xlink:href="#MercuryTermsCircle"
         x="-5.0"
         y="-5.0"
         style=""
         transform="rotate(-259.0, 0, 0) translate(-240.5, 0) rotate(96.86576718045873, 0, 0)"
         id="use633" />
      <use
         xlink:href="#termscircleSeparator"
         transform="rotate(-261,0,0)"
         id="use635" />
      <use
         xlink:href="#SaturnTermsCircle"
         x="-5.0"
         y="-5.0"
         style=""
         transform="rotate(-263.5, 0, 0) translate(-240.5, 0) rotate(101.36576718045873, 0, 0)"
         id="use637" />
      <use
         xlink:href="#termscircleSeparator"
         transform="rotate(-266,0,0)"
         id="use639" />
      <use
         xlink:href="#MarsTermsCircle"
         x="-5.0"
         y="-5.0"
         style=""
         transform="rotate(-268.0, 0, 0) translate(-240.5, 0) rotate(105.86576718045873, 0, 0)"
         id="use641" />
      <use
         xlink:href="#termscircleSeparator"
         transform="rotate(-270,0,0)"
         id="use643" />
      <use
         xlink:href="#MercuryTermsCircle"
         x="-5.0"
         y="-5.0"
         style=""
         transform="rotate(-273.5, 0, 0) translate(-240.5, 0) rotate(111.36576718045873, 0, 0)"
         id="use645" />
      <use
         xlink:href="#termscircleSeparator"
         transform="rotate(-277,0,0)"
         id="use647" />
      <use
         xlink:href="#JupiterTermsCircle"
         x="-5.0"
         y="-5.0"
         style=""
         transform="rotate(-280.5, 0, 0) translate(-240.5, 0) rotate(118.36576718045873, 0, 0)"
         id="use649" />
      <use
         xlink:href="#termscircleSeparator"
         transform="rotate(-284,0,0)"
         id="use651" />
      <use
         xlink:href="#VenusTermsCircle"
         x="-5.0"
         y="-5.0"
         style=""
         transform="rotate(-288.0, 0, 0) translate(-240.5, 0) rotate(125.86576718045873, 0, 0)"
         id="use653" />
      <use
         xlink:href="#termscircleSeparator"
         transform="rotate(-292,0,0)"
         id="use655" />
      <use
         xlink:href="#SaturnTermsCircle"
         x="-5.0"
         y="-5.0"
         style=""
         transform="rotate(-294.0, 0, 0) translate(-240.5, 0) rotate(131.86576718045873, 0, 0)"
         id="use657" />
      <use
         xlink:href="#termscircleSeparator"
         transform="rotate(-296,0,0)"
         id="use659" />
      <use
         xlink:href="#MarsTermsCircle"
         x="-5.0"
         y="-5.0"
         style=""
         transform="rotate(-298.0, 0, 0) translate(-240.5, 0) rotate(135.86576718045873, 0, 0)"
         id="use661" />
      <use
         xlink:href="#termscircleSeparator"
         transform="rotate(-300,0,0)"
         id="use663" />
      <use
         xlink:href="#MercuryTermsCircle"
         x="-5.0"
         y="-5.0"
         style=""
         transform="rotate(-303.5, 0, 0) translate(-240.5, 0) rotate(141.36576718045873, 0, 0)"
         id="use665" />
      <use
         xlink:href="#termscircleSeparator"
         transform="rotate(-307,0,0)"
         id="use667" />
      <use
         xlink:href="#VenusTermsCircle"
         x="-5.0"
         y="-5.0"
         style=""
         transform="rotate(-310.0, 0, 0) translate(-240.5, 0) rotate(147.86576718045873, 0, 0)"
         id="use669" />
      <use
         xlink:href="#termscircleSeparator"
         transform="rotate(-313,0,0)"
         id="use671" />
      <use
         xlink:href="#JupiterTermsCircle"
         x="-5.0"
         y="-5.0"
         style=""
         transform="rotate(-316.5, 0, 0) translate(-240.5, 0) rotate(154.36576718045873, 0, 0)"
         id="use673" />
      <use
         xlink:href="#termscircleSeparator"
         transform="rotate(-320,0,0)"
         id="use675" />
      <use
         xlink:href="#MarsTermsCircle"
         x="-5.0"
         y="-5.0"
         style=""
         transform="rotate(-322.5, 0, 0) translate(-240.5, 0) rotate(160.36576718045873, 0, 0)"
         id="use677" />
      <use
         xlink:href="#termscircleSeparator"
         transform="rotate(-325,0,0)"
         id="use679" />
      <use
         xlink:href="#SaturnTermsCircle"
         x="-5.0"
         y="-5.0"
         style=""
         transform="rotate(-327.5, 0, 0) translate(-240.5, 0) rotate(165.36576718045873, 0, 0)"
         id="use681" />
      <use
         xlink:href="#termscircleSeparator"
         transform="rotate(-330,0,0)"
         id="use683" />
      <use
         xlink:href="#VenusTermsCircle"
         x="-5.0"
         y="-5.0"
         style=""
         transform="rotate(-336.0, 0, 0) translate(-240.5, 0) rotate(173.86576718045873, 0, 0)"
         id="use685" />
      <use
         xlink:href="#termscircleSeparator"
         transform="rotate(-342,0,0)"
         id="use687" />
      <use
         xlink:href="#JupiterTermsCircle"
         x="-5.0"
         y="-5.0"
         style=""
         transform="rotate(-344.0, 0, 0) translate(-240.5, 0) rotate(181.86576718045873, 0, 0)"
         id="use689" />
      <use
         xlink:href="#termscircleSeparator"
         transform="rotate(-346,0,0)"
         id="use691" />
      <use
         xlink:href="#MercuryTermsCircle"
         x="-5.0"
         y="-5.0"
         style=""
         transform="rotate(-347.5, 0, 0) translate(-240.5, 0) rotate(185.36576718045873, 0, 0)"
         id="use693" />
      <use
         xlink:href="#termscircleSeparator"
         transform="rotate(-349,0,0)"
         id="use695" />
      <use
         xlink:href="#MarsTermsCircle"
         x="-5.0"
         y="-5.0"
         style=""
         transform="rotate(-353.5, 0, 0) translate(-240.5, 0) rotate(191.36576718045873, 0, 0)"
         id="use697" />
      <use
         xlink:href="#termscircleSeparator"
         transform="rotate(-358,0,0)"
         id="use699" />
      <use
         xlink:href="#SaturnTermsCircle"
         x="-5.0"
         y="-5.0"
         style=""
         transform="rotate(-359.0, 0, 0) translate(-240.5, 0) rotate(196.86576718045873, 0, 0)"
         id="use701" />
      <circle
         cx="0"
         cy="0"
         r="297.5"
         style="fill:none;"
         stroke-width="15"
         id="circle703"
         d="M 297.5,0 A 297.5,297.5 0 0 1 0,297.5 297.5,297.5 0 0 1 -297.5,0 297.5,297.5 0 0 1 0,-297.5 297.5,297.5 0 0 1 297.5,0 Z" />
      <circle
         cx="0"
         cy="0"
         r="290"
         style="fill:none; stroke:black; stroke-width:1;"
         id="circle705"
         d="M 290,0 A 290,290 0 0 1 0,290 290,290 0 0 1 -290,0 290,290 0 0 1 0,-290 290,290 0 0 1 290,0 Z" />
      <circle
         cx="0"
         cy="0"
         r="305"
         style="fill:none; stroke:black; stroke-width:1;"
         id="circle707"
         d="M 305,0 A 305,305 0 0 1 0,305 305,305 0 0 1 -305,0 305,305 0 0 1 0,-305 305,305 0 0 1 305,0 Z" />
      <use
         xlink:href="#facescircleSeparator"
         transform="rotate(0,0,0)"
         id="use709" />
      <use
         xlink:href="#MarsTermsCircle"
         x="-5.0"
         y="-5.0"
         style=""
         transform="rotate(-5.0, 0, 0) translate(-297.5, 0) rotate(-157.13423281954127, 0, 0)"
         id="use711" />
      <use
         xlink:href="#facescircleSeparator"
         transform="rotate(-10,0,0)"
         id="use713" />
      <use
         xlink:href="#SunTermsCircle"
         x="-5.0"
         y="-5.0"
         style=""
         transform="rotate(-15.0, 0, 0) translate(-297.5, 0) rotate(-147.13423281954127, 0, 0)"
         id="use715" />
      <use
         xlink:href="#facescircleSeparator"
         transform="rotate(-20,0,0)"
         id="use717" />
      <use
         xlink:href="#VenusTermsCircle"
         x="-5.0"
         y="-5.0"
         style=""
         transform="rotate(-25.0, 0, 0) translate(-297.5, 0) rotate(-137.13423281954127, 0, 0)"
         id="use719" />
      <use
         xlink:href="#facescircleSeparator"
         transform="rotate(-30,0,0)"
         id="use721" />
      <use
         xlink:href="#MercuryTermsCircle"
         x="-5.0"
         y="-5.0"
         style=""
         transform="rotate(-35.0, 0, 0) translate(-297.5, 0) rotate(-127.13423281954127, 0, 0)"
         id="use723" />
      <use
         xlink:href="#facescircleSeparator"
         transform="rotate(-40,0,0)"
         id="use725" />
      <use
         xlink:href="#MoonTermsCircle"
         x="-5.0"
         y="-5.0"
         style=""
         transform="rotate(-45.0, 0, 0) translate(-297.5, 0) rotate(-117.13423281954127, 0, 0)"
         id="use727" />
      <use
         xlink:href="#facescircleSeparator"
         transform="rotate(-50,0,0)"
         id="use729" />
      <use
         xlink:href="#SaturnTermsCircle"
         x="-5.0"
         y="-5.0"
         style=""
         transform="rotate(-55.0, 0, 0) translate(-297.5, 0) rotate(-107.13423281954127, 0, 0)"
         id="use731" />
      <use
         xlink:href="#facescircleSeparator"
         transform="rotate(-60,0,0)"
         id="use733" />
      <use
         xlink:href="#JupiterTermsCircle"
         x="-5.0"
         y="-5.0"
         style=""
         transform="rotate(-65.0, 0, 0) translate(-297.5, 0) rotate(-97.13423281954127, 0, 0)"
         id="use735" />
      <use
         xlink:href="#facescircleSeparator"
         transform="rotate(-70,0,0)"
         id="use737" />
      <use
         xlink:href="#MarsTermsCircle"
         x="-5.0"
         y="-5.0"
         style=""
         transform="rotate(-75.0, 0, 0) translate(-297.5, 0) rotate(-87.13423281954127, 0, 0)"
         id="use739" />
      <use
         xlink:href="#facescircleSeparator"
         transform="rotate(-80,0,0)"
         id="use741" />
      <use
         xlink:href="#SunTermsCircle"
         x="-5.0"
         y="-5.0"
         style=""
         transform="rotate(-85.0, 0, 0) translate(-297.5, 0) rotate(-77.13423281954127, 0, 0)"
         id="use743" />
      <use
         xlink:href="#facescircleSeparator"
         transform="rotate(-90,0,0)"
         id="use745" />
      <use
         xlink:href="#VenusTermsCircle"
         x="-5.0"
         y="-5.0"
         style=""
         transform="rotate(-95.0, 0, 0) translate(-297.5, 0) rotate(-67.13423281954127, 0, 0)"
         id="use747" />
      <use
         xlink:href="#facescircleSeparator"
         transform="rotate(-100,0,0)"
         id="use749" />
      <use
         xlink:href="#MercuryTermsCircle"
         x="-5.0"
         y="-5.0"
         style=""
         transform="rotate(-105.0, 0, 0) translate(-297.5, 0) rotate(-57.13423281954127, 0, 0)"
         id="use751" />
      <use
         xlink:href="#facescircleSeparator"
         transform="rotate(-110,0,0)"
         id="use753" />
      <use
         xlink:href="#MoonTermsCircle"
         x="-5.0"
         y="-5.0"
         style=""
         transform="rotate(-115.0, 0, 0) translate(-297.5, 0) rotate(-47.13423281954127, 0, 0)"
         id="use755" />
      <use
         xlink:href="#facescircleSeparator"
         transform="rotate(-120,0,0)"
         id="use757" />
      <use
         xlink:href="#SaturnTermsCircle"
         x="-5.0"
         y="-5.0"
         style=""
         transform="rotate(-125.0, 0, 0) translate(-297.5, 0) rotate(-37.13423281954127, 0, 0)"
         id="use759" />
      <use
         xlink:href="#facescircleSeparator"
         transform="rotate(-130,0,0)"
         id="use761" />
      <use
         xlink:href="#JupiterTermsCircle"
         x="-5.0"
         y="-5.0"
         style=""
         transform="rotate(-135.0, 0, 0) translate(-297.5, 0) rotate(-27.134232819541268, 0, 0)"
         id="use763" />
      <use
         xlink:href="#facescircleSeparator"
         transform="rotate(-140,0,0)"
         id="use765" />
      <use
         xlink:href="#MarsTermsCircle"
         x="-5.0"
         y="-5.0"
         style=""
         transform="rotate(-145.0, 0, 0) translate(-297.5, 0) rotate(-17.134232819541268, 0, 0)"
         id="use767" />
      <use
         xlink:href="#facescircleSeparator"
         transform="rotate(-150,0,0)"
         id="use769" />
      <use
         xlink:href="#SunTermsCircle"
         x="-5.0"
         y="-5.0"
         style=""
         transform="rotate(-155.0, 0, 0) translate(-297.5, 0) rotate(-7.134232819541268, 0, 0)"
         id="use771" />
      <use
         xlink:href="#facescircleSeparator"
         transform="rotate(-160,0,0)"
         id="use773" />
      <use
         xlink:href="#VenusTermsCircle"
         x="-5.0"
         y="-5.0"
         style=""
         transform="rotate(-165.0, 0, 0) translate(-297.5, 0) rotate(2.8657671804587324, 0, 0)"
         id="use775" />
      <use
         xlink:href="#facescircleSeparator"
         transform="rotate(-170,0,0)"
         id="use777" />
      <use
         xlink:href="#MercuryTermsCircle"
         x="-5.0"
         y="-5.0"
         style=""
         transform="rotate(-175.0, 0, 0) translate(-297.5, 0) rotate(12.865767180458732, 0, 0)"
         id="use779" />
      <use
         xlink:href="#facescircleSeparator"
         transform="rotate(-180,0,0)"
         id="use781" />
      <use
         xlink:href="#MoonTermsCircle"
         x="-5.0"
         y="-5.0"
         style=""
         transform="rotate(-185.0, 0, 0) translate(-297.5, 0) rotate(22.865767180458732, 0, 0)"
         id="use783" />
      <use
         xlink:href="#facescircleSeparator"
         transform="rotate(-190,0,0)"
         id="use785" />
      <use
         xlink:href="#SaturnTermsCircle"
         x="-5.0"
         y="-5.0"
         style=""
         transform="rotate(-195.0, 0, 0) translate(-297.5, 0) rotate(32.86576718045873, 0, 0)"
         id="use787" />
      <use
         xlink:href="#facescircleSeparator"
         transform="rotate(-200,0,0)"
         id="use789" />
      <use
         xlink:href="#JupiterTermsCircle"
         x="-5.0"
         y="-5.0"
         style=""
         transform="rotate(-205.0, 0, 0) translate(-297.5, 0) rotate(42.86576718045873, 0, 0)"
         id="use791" />
      <use
         xlink:href="#facescircleSeparator"
         transform="rotate(-210,0,0)"
         id="use793" />
      <use
         xlink:href="#MarsTermsCircle"
         x="-5.0"
         y="-5.0"
         style=""
         transform="rotate(-215.0, 0, 0) translate(-297.5, 0) rotate(52.86576718045873, 0, 0)"
         id="use795" />
      <use
         xlink:href="#facescircleSeparator"
         transform="rotate(-220,0,0)"
         id="use797" />
      <use
         xlink:href="#SunTermsCircle"
         x="-5.0"
         y="-5.0"
         style=""
         transform="rotate(-225.0, 0, 0) translate(-297.5, 0) rotate(62.86576718045873, 0, 0)"
         id="use799" />
      <use
         xlink:href="#facescircleSeparator"
         transform="rotate(-230,0,0)"
         id="use801" />
      <use
         xlink:href="#VenusTermsCircle"
         x="-5.0"
         y="-5.0"
         style=""
         transform="rotate(-235.0, 0, 0) translate(-297.5, 0) rotate(72.86576718045873, 0, 0)"
         id="use803" />
      <use
         xlink:href="#facescircleSeparator"
         transform="rotate(-240,0,0)"
         id="use805" />
      <use
         xlink:href="#MercuryTermsCircle"
         x="-5.0"
         y="-5.0"
         style=""
         transform="rotate(-245.0, 0, 0) translate(-297.5, 0) rotate(82.86576718045873, 0, 0)"
         id="use807" />
      <use
         xlink:href="#facescircleSeparator"
         transform="rotate(-250,0,0)"
         id="use809" />
      <use
         xlink:href="#MoonTermsCircle"
         x="-5.0"
         y="-5.0"
         style=""
         transform="rotate(-255.0, 0, 0) translate(-297.5, 0) rotate(92.86576718045873, 0, 0)"
         id="use811" />
      <use
         xlink:href="#facescircleSeparator"
         transform="rotate(-260,0,0)"
         id="use813" />
      <use
         xlink:href="#SaturnTermsCircle"
         x="-5.0"
         y="-5.0"
         style=""
         transform="rotate(-265.0, 0, 0) translate(-297.5, 0) rotate(102.86576718045873, 0, 0)"
         id="use815" />
      <use
         xlink:href="#facescircleSeparator"
         transform="rotate(-270,0,0)"
         id="use817" />
      <use
         xlink:href="#JupiterTermsCircle"
         x="-5.0"
         y="-5.0"
         style=""
         transform="rotate(-275.0, 0, 0) translate(-297.5, 0) rotate(112.86576718045873, 0, 0)"
         id="use819" />
      <use
         xlink:href="#facescircleSeparator"
         transform="rotate(-280,0,0)"
         id="use821" />
      <use
         xlink:href="#MarsTermsCircle"
         x="-5.0"
         y="-5.0"
         style=""
         transform="rotate(-285.0, 0, 0) translate(-297.5, 0) rotate(122.86576718045873, 0, 0)"
         id="use823" />
      <use
         xlink:href="#facescircleSeparator"
         transform="rotate(-290,0,0)"
         id="use825" />
      <use
         xlink:href="#SunTermsCircle"
         x="-5.0"
         y="-5.0"
         style=""
         transform="rotate(-295.0, 0, 0) translate(-297.5, 0) rotate(132.86576718045873, 0, 0)"
         id="use827" />
      <use
         xlink:href="#facescircleSeparator"
         transform="rotate(-300,0,0)"
         id="use829" />
      <use
         xlink:href="#VenusTermsCircle"
         x="-5.0"
         y="-5.0"
         style=""
         transform="rotate(-305.0, 0, 0) translate(-297.5, 0) rotate(142.86576718045873, 0, 0)"
         id="use831" />
      <use
         xlink:href="#facescircleSeparator"
         transform="rotate(-310,0,0)"
         id="use833" />
      <use
         xlink:href="#MercuryTermsCircle"
         x="-5.0"
         y="-5.0"
         style=""
         transform="rotate(-315.0, 0, 0) translate(-297.5, 0) rotate(152.86576718045873, 0, 0)"
         id="use835" />
      <use
         xlink:href="#facescircleSeparator"
         transform="rotate(-320,0,0)"
         id="use837" />
      <use
         xlink:href="#MoonTermsCircle"
         x="-5.0"
         y="-5.0"
         style=""
         transform="rotate(-325.0, 0, 0) translate(-297.5, 0) rotate(162.86576718045873, 0, 0)"
         id="use839" />
      <use
         xlink:href="#facescircleSeparator"
         transform="rotate(-330,0,0)"
         id="use841" />
      <use
         xlink:href="#SaturnTermsCircle"
         x="-5.0"
         y="-5.0"
         style=""
         transform="rotate(-335.0, 0, 0) translate(-297.5, 0) rotate(172.86576718045873, 0, 0)"
         id="use843" />
      <use
         xlink:href="#facescircleSeparator"
         transform="rotate(-340,0,0)"
         id="use845" />
      <use
         xlink:href="#JupiterTermsCircle"
         x="-5.0"
         y="-5.0"
         style=""
         transform="rotate(-345.0, 0, 0) translate(-297.5, 0) rotate(182.86576718045873, 0, 0)"
         id="use847" />
      <use
         xlink:href="#facescircleSeparator"
         transform="rotate(-350,0,0)"
         id="use849" />
      <use
         xlink:href="#MarsTermsCircle"
         x="-5.0"
         y="-5.0"
         style=""
         transform="rotate(-355.0, 0, 0) translate(-297.5, 0) rotate(192.86576718045873, 0, 0)"
         id="use851" />
    </g>
    <g
       id="chartbase">
      <use
         xlink:href="#CentralCircle"
         id="use854" />
      <use
         xlink:href="#HouseCircle"
         id="use856" />
      <use
         xlink:href="#HouseNumbers"
         id="use858" />
      <use
         xlink:href="#InnerCross"
         id="use860" />
      <use
         xlink:href="#OuterCross"
         id="use862" />
      <use
         xlink:href="#ObjectsCircle"
         id="use864" />
      <use
         xlink:href="#HouseAnglesCircle"
         id="use866" />
      <use
         xlink:href="#SignCircle"
         id="use868" />
      <use
         xlink:href="#SignTicksCircle"
         id="use870" />
      <use
         xlink:href="#TermsCircle"
         id="use872" />
      <use
         xlink:href="#FacesCircle"
         id="use874" />
    </g>
    <clipPath
       clipPathUnits="userSpaceOnUse"
       id="clipPath5013">
      <rect
         style="opacity:0.569;fill:#000080;fill-opacity:1;fill-rule:nonzero;stroke:none;stroke-width:3.0999999;stroke-linecap:round;stroke-linejoin:round;stroke-miterlimit:4;stroke-dasharray:74.4, 3.1;stroke-dashoffset:0;stroke-opacity:0.93530997"
         id="rect5015"
         width="429.45081"
         height="334.86938"
         x="-338.60934"
         y="-334.96375"
         rx="1.98871e-014"
         ry="101.493" />
    </clipPath>
    <clipPath
       clipPathUnits="userSpaceOnUse"
       id="clipPath5017">
      <rect
         style="opacity:0.569;fill:#000080;fill-opacity:1;fill-rule:nonzero;stroke:none;stroke-width:3.0999999;stroke-linecap:round;stroke-linejoin:round;stroke-miterlimit:4;stroke-dasharray:74.4, 3.1;stroke-dashoffset:0;stroke-opacity:0.93530997"
         id="rect5019"
         width="429.45081"
         height="334.86938"
         x="-232.52478"
         y="-336.24188"
         rx="1.98871e-014"
         ry="101.493" />
    </clipPath>
    <clipPath
       clipPathUnits="userSpaceOnUse"
       id="clipPath4623">
      <rect
         style="opacity:0.303;fill:#000080;fill-opacity:1;fill-rule:nonzero;stroke:none;stroke-width:3.0999999;stroke-linecap:round;stroke-linejoin:round;stroke-miterlimit:4;stroke-dasharray:74.4, 3.1;stroke-dashoffset:0;stroke-opacity:0.93530997"
         id="rect4625"
         width="403.84558"
         height="299.96777"
         x="-313.02637"
         y="-331.6377" />
    </clipPath>
  </defs>
  <rect
     id="background"
     x="-335"
     y="-335"
     width="690"
     height="690"
     clip-path="url(#clipPath5017)"
     transform="matrix(1.398882,0,0,1.376265,13.506045,170.50736)"
     style="fill:none" />
  <use
     xlink:href="#chartbase"
     id="use877"
     transform="matrix(1.398882,0,0,1.376265,508.27836,163.63581)"
     x="0"
     y="0"
     width="100%"
     height="100%"
     clip-path="url(#clipPath4623)"
     style="fill:#ffdd55;opacity:0.303" />
</svg>
